<?xml version="1.0" encoding="UTF-8" standalone="no"?>
<svg
   xmlns:dc="http://purl.org/dc/elements/1.1/"
   xmlns:cc="http://creativecommons.org/ns#"
   xmlns:rdf="http://www.w3.org/1999/02/22-rdf-syntax-ns#"
   xmlns:svg="http://www.w3.org/2000/svg"
   xmlns="http://www.w3.org/2000/svg"
   xmlns:sodipodi="http://sodipodi.sourceforge.net/DTD/sodipodi-0.dtd"
   xmlns:inkscape="http://www.inkscape.org/namespaces/inkscape"
   id="svg2"
   xml:space="preserve"
   viewBox="0 0 54.025 38.98"
   version="1.1"
   inkscape:version="1.0.2-2 (e86c870879, 2021-01-15)"
   sodipodi:docname="misc-bag-bigger-gray.svg"><defs
   id="defs163">
    
  
      
      
      
      
      
      
      
      
      
      
      
      
      
      
      
      
      
      
      
      
      
      
      
      
      
      
      
      
      
      
      
      
      
      
      
      
      
      
      
      
      
      
      
      
      
      
      
      
      
      
      
      
      
      
      
      
      
      
      
      
      
      
      
      
      
      
      
      
      
      
      
      
      
      
      
      
      
      
      
      
      
      
      
      
      
      
      
      
      
      
      
      
      
      
      
      
      
      
      
      
      
      
      
      
      
      
      
      
      
      
      
      
      
      
      
      
      
      
      
      
      
      
      
      
      
      
      
      
      
      
      
      
      
      
      
      
      
      
      
      
      
      
      
      
      
      
      
      
      
      
      
      
      
      
    </defs><sodipodi:namedview
   pagecolor="#ffffff"
   bordercolor="#666666"
   borderopacity="1"
   objecttolerance="10"
   gridtolerance="10"
   guidetolerance="10"
   inkscape:pageopacity="0"
   inkscape:pageshadow="2"
   inkscape:window-width="1857"
   inkscape:window-height="1058"
   id="namedview161"
   showgrid="false"
   inkscape:zoom="20.842202"
   inkscape:cx="27.012501"
   inkscape:cy="19.49"
   inkscape:window-x="1016"
   inkscape:window-y="-8"
   inkscape:window-maximized="1"
   inkscape:current-layer="svg2" />
  <path
   id="path296"
   style="fill:#636c70;fill-rule:evenodd;stroke-width:1.25"
   d="m 48.38375,3.75 c 0.3025,1.30375 0.195,2.3675 -0.3175,3.18375 L 47.33375,8.09 v 0.1025 l 0.1025,0.1425 0.14125,0.3125 v 0.03375 l 0.21,0.42 V 9.14 l 0.21,0.42 0.06875,0.1025 0.24875,0.48875 0.1025,0.14125 0.3175,0.59625 1.1875,1.82125 c 0.7225,0.9325 1.445,2.1425 2.1725,3.6375 0.7425,1.58625 1.20125,2.895 1.3625,3.92 0.4,2.56875 0.57125,4.5275 0.5275,5.88 -0.07375,2.1925 -0.655,3.945 -1.75375,5.24875 -1.025,1.24 -3.765,2.465 -8.2225,3.67625 -6.20625,1.655 -9.34625,2.495 -9.41375,2.52 -1.9825,0.7475 -4.9275,0.87375 -8.82375,0.385 C 22.1775,37.50875 18.32,36.59125 14.19,35.215 L 12.93,34.72125 10.79125,33.6375 9.4975,32.72875 8.27125,31.5375 8.06125,31.25875 C 7.9,31.09375 7.725,30.87375 7.53875,30.595 L 6.9775,29.755 C 6.7925,29.40375 6.5575,28.87625 6.27875,28.17875 L 6.245,28.14375 5.99625,27.33875 5.9625,27.27 5.7525,26.49875 v -0.1075 L 5.57625,25.59 V 25.5175 C 5.415,24.49125 5.35625,23.325 5.405,22.01625 V 21.9825 l 0.035,-0.1375 0.13625,-1.19125 0.4925,-1.89 0.48875,-1.225 L 8.27125,14.4575 9.74125,12.5 9.815,12.3925 c 0.46375,-0.5575 1,-1.1425 1.60625,-1.74875 L 13.17375,9.0325 19.4725,4.38 19.54125,4.345 19.58,4.20375 19.6825,3.96 19.92625,2.94375 V 2.91 L 20,2.34875 v -0.21 l -0.03875,-0.7375 0.0725,-0.21 v -0.035 L 20.21,0.98125 20.27875,0.94625 20.3125,0.9125 20.45375,0.87875 v -0.035 l 0.38625,-0.0725 0.55625,-0.035 c 1.05,-0.5125 2.1825,-0.75625 3.39875,-0.73125 1.06875,0 1.9825,0.21 2.73,0.62875 0.74625,0.42 1.5525,0.79125 2.41125,1.11875 0.9575,0.37625 1.63625,0.56125 2.03125,0.56125 1.19125,0 2.6275,-0.3175 4.3075,-0.9475 1.1175,-0.42 2.065,-0.67375 2.83125,-0.76625 0.9575,-0.1175 1.83625,-0.04875 2.6275,0.21 0.58125,0.18625 2.075,0.3025 4.4775,0.34625 1.9875,0.28375 2.71,1.1425 2.1725,2.59375 z"
   inkscape:connector-curvature="0" /><path
   id="path14"
   style="fill:#000000;fill-opacity:0.4;fill-rule:evenodd;stroke-width:1.25"
   d="M 30.425,6.26375 C 29.93625,6.1275 29.23875,5.74125 28.325,5.11125 27.44125,4.50625 26.71875,4.13 26.1575,3.98875 c -1.05,-0.21 -1.83125,-0.38125 -2.34375,-0.5225 -0.9325,-0.21 -1.68,-0.5275 -2.24125,-0.9475 l -0.87375,-0.595 c 0.5125,-0.63 1.88875,-1.01125 4.13,-1.1525 0.67375,-0.04875 1.41125,0.14125 2.2025,0.56125 0.44375,0.235 1.1325,0.63 2.065,1.18625 1.30875,0.63 2.8475,0.79625 4.62,0.49375 C 34.72125,2.84625 36.26,2.5 38.335,1.9625 39.9225,1.655 41.29875,1.58625 42.46625,1.7525 42.7925,1.79625 43.55,1.855 44.74125,1.92375 45.84,2.04 46.51375,2.285 46.7675,2.66125 47.26125,3.38375 46.9,4.01375 45.68375,4.55 c -1.47,0.46875 -2.3775,0.78125 -2.73,0.9425 -1.025,0.5175 -1.7375,0.82 -2.13375,0.91375 -0.58125,0.11625 -1.3425,0.0825 -2.275,-0.1075 -0.56125,-0.1175 -1.9925,-0.17125 -4.30125,-0.17125 -0.19125,0 -0.83125,0.05375 -1.92875,0.17125 -0.81625,0.0975 -1.44625,0.0825 -1.89,-0.035 z"
   inkscape:connector-curvature="0" /><path
   id="path16"
   style="fill:#000000;fill-opacity:0.2;fill-rule:evenodd;stroke-width:1.25"
   d="m 27.91,1.855 -0.03875,0.03375 c -0.3225,0.3275 -0.85,0.635 -1.5725,0.91375 -0.815,0.3275 -1.3675,0.595 -1.645,0.805 L 24.585,3.6425 C 23.2275,3.36375 22.22625,2.9875 21.5725,2.52375 l -0.87375,-0.595 c 0.5125,-0.63 1.88875,-1.01625 4.13,-1.1575 0.5375,-0.04875 1.075,0.04875 1.60625,0.2775 0.30875,0.1175 0.79625,0.38625 1.475,0.80625 z"
   inkscape:connector-curvature="0" /><path
   id="path18"
   style="fill:#000000;fill-opacity:0.2;fill-rule:evenodd;stroke-width:1.25"
   d="m 29.6925,5.95125 c 0.27875,-1.04875 0.27875,-2.11375 0,-3.1875 1.28375,0.4925 2.83625,0.52625 4.65375,0.1075 l 0.0725,0.0675 c 0.42,0.25875 0.7575,0.7225 1.01625,1.40125 0.13625,0.37125 0.33625,0.9575 0.595,1.74875 L 34.24375,6.1275 c -0.18625,0 -0.83125,0.05375 -1.925,0.17125 -0.82,0.0925 -1.45,0.0825 -1.89375,-0.035 z"
   inkscape:connector-curvature="0" /><path
   id="path20"
   style="fill:#000000;fill-opacity:0.2;fill-rule:evenodd;stroke-width:1.25"
   d="m 46.7725,2.66125 c 0.48875,0.7225 0.1275,1.3525 -1.08375,1.88875 -1.47,0.46875 -2.3825,0.78125 -2.73,0.9425 -0.5125,0.28375 -0.97125,0.49375 -1.3675,0.63 0.16625,-2.31 0.3175,-3.77875 0.455,-4.40875 l 0.42,0.03375 C 42.7925,1.79625 43.555,1.855 44.74125,1.92375 45.84,2.04 46.51375,2.29 46.7725,2.66125 Z"
   inkscape:connector-curvature="0" /><path
   id="path22"
   style="fill:#000000;fill-opacity:0.1451;fill-rule:evenodd;stroke-width:1.25"
   d="M 23.98875,9.0325 C 24.73625,8.4025 25.41,7.24625 26.015,5.56625 v 0.1025 c -1.1425,2.75375 -2.00625,4.18 -2.5875,4.2725 z"
   inkscape:connector-curvature="0" /><path
   id="path24"
   style="fill:#000000;fill-opacity:0.1451;fill-rule:evenodd;stroke-width:1.25"
   d="M 30.2875,10.78125 29.8,10.605 C 29.72625,9.48625 29.55125,8.56375 29.2725,7.84125 L 30.01,7.91 c 0.43875,0.02375 1.00125,-0.07875 1.68,-0.3125 -0.06875,1.3275 -0.235,2.495 -0.49375,3.50125 -0.1175,-0.025 -0.42,-0.1325 -0.90875,-0.3175 z"
   inkscape:connector-curvature="0" /><path
   id="path26"
   style="fill:#000000;fill-opacity:0.1451;fill-rule:evenodd;stroke-width:1.25"
   d="m 41.20625,7.31875 0.42,-0.1075 c 0.04875,0.06875 0.35125,0.42 0.9125,1.05 0.39625,0.44375 0.615,0.86375 0.66375,1.26 -0.14125,0.35125 -0.24375,0.7225 -0.31625,1.1175 -0.3475,-0.01875 -0.79125,0.025 -1.32875,0.1425 -0.06875,-0.09375 -0.16625,-0.16125 -0.27875,-0.21 -0.14125,-0.04375 -0.2725,-0.01 -0.385,0.1075 C 40.7275,10.815 40.61,10.8975 40.5425,10.9225 40.3075,10.99125 39.98,11.015 39.56,10.99125 c -0.4875,0 -0.825,0.01375 -1.015,0.03375 0.37625,-0.58125 0.645,-1.18625 0.805,-1.81625 0.1425,-0.655 0.1325,-1.21625 -0.03375,-1.68 0.815,-0.005 1.445,-0.07375 1.89,-0.21 z"
   inkscape:connector-curvature="0" /><path
   id="path28"
   style="fill:#000000;fill-opacity:0.1451;fill-rule:evenodd;stroke-width:1.25"
   d="m 31.82625,14.41875 c 0.42,-0.65 0.67875,-1.5475 0.77125,-2.695 0.46875,-1.21125 0.80625,-2.74 1.01625,-4.58125 L 34.175,7.10875 35.225,7.1775 c -0.60625,0.58125 -1.22625,1.7825 -1.85625,3.60375 -0.65375,1.9575 -1.16625,3.17375 -1.5425,3.6375 z"
   inkscape:connector-curvature="0" /><path
   id="path30"
   style="fill:#000000;fill-opacity:0.1451;fill-rule:evenodd;stroke-width:1.25"
   d="m 36.09875,16.09875 c -0.14125,-1.23625 -0.21,-2.25125 -0.21,-3.0425 0.3025,0.06875 1.17625,0.16125 2.6225,0.27875 0.14125,0 0.52625,-0.035 1.15625,-0.1025 0.5375,-0.04875 0.92375,-0.04875 1.1525,0 0.58625,0.9325 0.50375,2.5625 -0.24375,4.8975 -0.77125,2.33375 -1.655,3.69125 -2.66125,4.0625 -1.05,0.37 -2.505,0.53625 -4.375,0.4875 -2.21625,-0.02375 -3.69625,0.025 -4.44375,0.14125 -1.18625,0.18625 -2.52875,0.235 -4.0225,0.1425 -0.81625,-0.04875 -2.09,-0.19125 -3.81375,-0.42 0.9325,0.43875 1.72375,0.6975 2.3775,0.76625 0.445,0.04875 1.68,0.25875 3.71125,0.635 1.7725,0.3025 3.0075,0.47875 3.71125,0.5225 2.09875,0.16125 3.49625,0.45375 4.19875,0.87375 0.7225,0.46875 0.185,1.43625 -1.61125,2.905 -1.61125,1.32875 -2.94875,2.16875 -4.02375,2.52 -1.005,0.35125 -2.51,0.5025 -4.51625,0.45375 -2.2175,-0.1125 -3.735,-0.175 -4.55125,-0.175 -2.47,0 -4.0575,-0.035 -4.76,-0.1025 C 14.0475,30.75625 12.55375,30.2975 11.31875,29.58 10.75625,29.2275 10.185,28.70125 9.605,28.0025 9.32625,27.7 8.8575,27.09375 8.2025,26.18125 L 7.78375,25.625 c 0.2825,-0.37625 0.4925,-1.03125 0.62875,-1.96375 0.16625,-1.1425 0.26,-1.7625 0.28375,-1.855 0.185,-0.63 0.48875,-1.06 0.90875,-1.29375 0.83875,0.88875 1.855,1.5275 3.04625,1.92375 1.09375,0.395 2.27125,0.55125 3.53,0.45875 -0.0675,-0.3275 -0.33625,-0.7125 -0.8,-1.1575 -0.60625,-0.53625 -1.065,-0.9325 -1.3675,-1.19125 h 0.03375 c -0.01875,-0.0925 -0.185,-0.22875 -0.4875,-0.42 -0.235,-0.21 -0.41,-0.43875 -0.5275,-0.6975 0.86375,0.3025 2.12375,0.74625 3.78375,1.3275 1.42125,0.42 2.74,0.645 3.95,0.66875 1.685,0.02 4.12125,-0.15125 7.32,-0.5275 0.88375,-0.04375 2.1675,-0.04375 3.8475,0 C 33.31,20.78125 34.36,20.2 35.0825,19.15 c 0.67375,-0.98625 1.01625,-1.9975 1.01625,-3.05125 z"
   inkscape:connector-curvature="0" /><path
   id="path32"
   style="fill:#000000;fill-opacity:0.1451;fill-rule:evenodd;stroke-width:1.25"
   d="m 6.94375,23.69625 v 0.14125 l -0.21,0.45375 C 6.31375,23.705 5.97125,23.17375 5.7175,22.68 L 5.44,21.9825 5.47375,21.84 C 5.56625,19.92625 6.245,17.9 7.505,15.75125 c 0.16125,1.1425 0.43,2.09 0.80125,2.8375 -0.3225,0.7225 -0.5575,1.435 -0.69875,2.13375 -0.445,1.16625 -0.66375,2.1575 -0.66375,2.97375 z"
   inkscape:connector-curvature="0" /><path
   id="path34"
   style="fill:#000000;fill-opacity:0.1451;fill-rule:evenodd;stroke-width:1.25"
   d="m 30.39,14.0375 c 0.19125,0 0.3275,-0.02375 0.42,-0.0725 0.07375,0.25375 0.05,0.63375 -0.0675,1.1375 -0.25875,0.04875 -0.5275,0.02875 -0.80625,-0.05375 l -0.0675,-1.9925 C 30.195,13.17375 30.43,13.3 30.56625,13.4425 Z"
   inkscape:connector-curvature="0" /><path
   id="path36"
   style="fill:#000000;fill-opacity:0.1451;fill-rule:evenodd;stroke-width:1.25"
   d="m 21.18625,1.855 c -0.1175,-0.3275 -0.185,-0.63 -0.21,-0.90875 l 0.17625,-0.21 h 0.27875 l -0.1375,0.3475 C 21.20125,1.3425 21.1625,1.59625 21.18625,1.855 Z"
   inkscape:connector-curvature="0" /><path
   id="path38"
   style="fill:#000000;fill-opacity:0.1451;fill-rule:evenodd;stroke-width:1.25"
   d="M 22.485,6.09375 C 22.52875,5.415 22.47125,4.80875 22.31,4.2725 22.1925,3.89625 21.94875,3.36375 21.5725,2.66125 c 0.0925,0.11625 0.2,0.21 0.3175,0.2825 0.605,0.39625 1.26,0.7425 1.9575,1.05 0.25875,0.58125 0.235,1.43 -0.06875,2.55375 -0.19,0.04375 -0.5025,-0.05875 -0.94625,-0.3125 z"
   inkscape:connector-curvature="0" /><path
   id="path40"
   style="fill:#000000;fill-opacity:0.1451;fill-rule:evenodd;stroke-width:1.25"
   d="m 23.77875,6.5475 c 0.30375,-1.12375 0.3225,-1.9725 0.06875,-2.55875 0.67875,0.28375 1.20125,0.45875 1.5725,0.5275 0.23375,0.06875 0.38625,0.21 0.45875,0.42 0.04375,0.06875 0.0925,0.27875 0.13625,0.63 -0.605,1.68 -1.28375,2.83125 -2.02625,3.46625 0.60625,-1.19125 0.68375,-2.1625 0.245,-2.905 -0.1425,0.23375 -0.29375,0.37125 -0.455,0.42 z"
   inkscape:connector-curvature="0" /><path
   id="path42"
   style="fill:#000000;fill-opacity:0.2;fill-rule:evenodd;stroke-width:1.25"
   d="m 23.77875,6.5475 c 0.30375,-1.12375 0.3225,-1.9725 0.06875,-2.55875 0.67875,0.28375 1.20125,0.45875 1.5725,0.5275 0.23375,0.06875 0.38625,0.21 0.45875,0.42 0.04375,0.06875 0.0925,0.27875 0.13625,0.63 -0.605,1.68 -1.28375,2.83125 -2.02625,3.46625 0.60625,-1.19125 0.68375,-2.1625 0.245,-2.905 -0.1425,0.23375 -0.29375,0.37125 -0.455,0.42 z"
   inkscape:connector-curvature="0" /><path
   id="path44"
   style="fill:#000000;fill-opacity:0.1451;fill-rule:evenodd;stroke-width:1.25"
   d="m 32.5975,10.605 c -0.27875,0.46875 -0.7475,0.63 -1.40125,0.48875 0.25875,-1.00125 0.42,-2.16875 0.48875,-3.49625 0.9125,-0.25875 1.5525,-0.41 1.92875,-0.45875 -0.21,1.845 -0.5475,3.37375 -1.01625,4.585 z"
   inkscape:connector-curvature="0" /><path
   id="path46"
   style="fill:#000000;fill-opacity:0.2;fill-rule:evenodd;stroke-width:1.25"
   d="m 32.5975,10.605 c -0.27875,0.46875 -0.7475,0.63 -1.40125,0.48875 0.25875,-1.00125 0.42,-2.16875 0.48875,-3.49625 0.9125,-0.25875 1.5525,-0.41 1.92875,-0.45875 -0.21,1.845 -0.5475,3.37375 -1.01625,4.585 z"
   inkscape:connector-curvature="0" /><path
   id="path48"
   style="fill:#000000;fill-opacity:0.1451;fill-rule:evenodd;stroke-width:1.25"
   d="m 30.39,14.0375 0.17625,-0.595 c 0.1175,0.11125 0.2,0.2875 0.24375,0.5225 -0.0925,0.04875 -0.22875,0.0725 -0.42,0.0725 z"
   inkscape:connector-curvature="0" /><path
   id="path50"
   style="fill:#000000;fill-opacity:0.2;fill-rule:evenodd;stroke-width:1.25"
   d="m 30.39,14.0375 0.17625,-0.595 c 0.1175,0.11125 0.2,0.2875 0.24375,0.5225 -0.0925,0.04875 -0.22875,0.0725 -0.42,0.0725 z"
   inkscape:connector-curvature="0" /><path
   id="path52"
   style="fill:#000000;fill-opacity:0.1451;fill-rule:evenodd;stroke-width:1.25"
   d="m 40.82,13.2325 0.3525,0.175 0.14125,-0.5275 c 1.28375,-0.16125 2.34375,-0.43875 3.18375,-0.84 h 0.21 c -0.255,0.58625 -0.665,1.41125 -1.22125,2.48625 -0.425,0.98125 -0.66875,1.93875 -0.7375,2.87125 0,0.04875 0.1025,1.245 0.3125,3.6025 0.0975,1.1925 -0.25375,2.26625 -1.05,3.21875 l -3.6025,3.8525 c -0.255,0.2775 0.03375,0.805 0.87375,1.57625 0.86375,0.7675 1.18125,1.33875 0.9475,1.71375 -0.79625,1.285 -2.05625,2.11 -3.78,2.48625 -2.1925,0.21 -3.89625,0.395 -5.1125,0.56125 C 28.56,34.78 25.41,34.82875 21.89,34.545 18.48125,34.2675 15.38125,33.73 12.5775,32.93375 10.41,32.32875 8.4225,31.01 6.63125,28.98375 5.7175,27.045 5.3225,24.71125 5.44,21.9825 L 5.7175,22.68 c 0.25875,0.49375 0.59625,1.025 1.01625,1.61125 C 6.455,24.99 6.28875,25.43375 6.245,25.62 c -0.14125,0.9125 0.03375,1.61125 0.5225,2.09875 0.21,0.215 0.5375,0.57625 0.98125,1.09 C 8.145,29.20375 8.53,29.4475 8.90125,29.54 8.2275,27.7925 7.8175,26.5325 7.67625,25.76125 L 7.78375,25.62 8.2025,26.18125 C 8.8575,27.09 9.32125,27.7 9.605,28.0025 c 0.58,0.69875 1.15125,1.225 1.71375,1.5725 1.235,0.7225 2.72875,1.18125 4.4775,1.3675 0.7025,0.0675 2.29,0.1025 4.76,0.1025 0.81625,0 2.33375,0.0575 4.55125,0.175 2.00625,0.04875 3.51125,-0.1025 4.51625,-0.45375 1.07,-0.35125 2.4125,-1.19125 4.02375,-2.52 1.79625,-1.46875 2.33375,-2.44125 1.60625,-2.905 -0.6975,-0.42 -2.1,-0.7125 -4.19875,-0.87375 -0.69875,-0.04875 -1.93375,-0.225 -3.71125,-0.5275 -2.02625,-0.37125 -3.26125,-0.58125 -3.70625,-0.63 -0.65375,-0.06875 -1.445,-0.3275 -2.3825,-0.77125 1.72875,0.23375 2.9975,0.37625 3.81875,0.42 1.49375,0.0975 2.83125,0.04875 4.0225,-0.1375 0.7475,-0.11625 2.2275,-0.165 4.44375,-0.14125 1.865,0.04375 3.325,-0.1175 4.375,-0.4875 1.00625,-0.37625 1.89,-1.72875 2.66125,-4.0625 0.7475,-2.335 0.83,-3.965 0.24375,-4.8975 z"
   inkscape:connector-curvature="0" /><path
   id="path54"
   style="fill:#000000;fill-opacity:0.2;fill-rule:evenodd;stroke-width:1.25"
   d="m 40.82,13.2325 0.3525,0.175 0.14125,-0.5275 c 1.28375,-0.16125 2.34375,-0.43875 3.18375,-0.84 h 0.21 c -0.255,0.58625 -0.665,1.41125 -1.22125,2.48625 -0.425,0.98125 -0.66875,1.93875 -0.7375,2.87125 0,0.04875 0.1025,1.245 0.3125,3.6025 0.0975,1.1925 -0.25375,2.26625 -1.05,3.21875 l -3.6025,3.8525 c -0.255,0.2775 0.03375,0.805 0.87375,1.57625 0.86375,0.7675 1.18125,1.33875 0.9475,1.71375 -0.79625,1.285 -2.05625,2.11 -3.78,2.48625 -2.1925,0.21 -3.89625,0.395 -5.1125,0.56125 C 28.56,34.78 25.41,34.82875 21.89,34.545 18.48125,34.2675 15.38125,33.73 12.5775,32.93375 10.41,32.32875 8.4225,31.01 6.63125,28.98375 5.7175,27.045 5.3225,24.71125 5.44,21.9825 L 5.7175,22.68 c 0.25875,0.49375 0.59625,1.025 1.01625,1.61125 C 6.455,24.99 6.28875,25.43375 6.245,25.62 c -0.14125,0.9125 0.03375,1.61125 0.5225,2.09875 0.21,0.215 0.5375,0.57625 0.98125,1.09 C 8.145,29.20375 8.53,29.4475 8.90125,29.54 8.2275,27.7925 7.8175,26.5325 7.67625,25.76125 L 7.78375,25.62 8.2025,26.18125 C 8.8575,27.09 9.32125,27.7 9.605,28.0025 c 0.58,0.69875 1.15125,1.225 1.71375,1.5725 1.235,0.7225 2.72875,1.18125 4.4775,1.3675 0.7025,0.0675 2.29,0.1025 4.76,0.1025 0.81625,0 2.33375,0.0575 4.55125,0.175 2.00625,0.04875 3.51125,-0.1025 4.51625,-0.45375 1.07,-0.35125 2.4125,-1.19125 4.02375,-2.52 1.79625,-1.46875 2.33375,-2.44125 1.60625,-2.905 -0.6975,-0.42 -2.1,-0.7125 -4.19875,-0.87375 -0.69875,-0.04875 -1.93375,-0.225 -3.71125,-0.5275 -2.02625,-0.37125 -3.26125,-0.58125 -3.70625,-0.63 -0.65375,-0.06875 -1.445,-0.3275 -2.3825,-0.77125 1.72875,0.23375 2.9975,0.37625 3.81875,0.42 1.49375,0.0975 2.83125,0.04875 4.0225,-0.1375 0.7475,-0.11625 2.2275,-0.165 4.44375,-0.14125 1.865,0.04375 3.325,-0.1175 4.375,-0.4875 1.00625,-0.37625 1.89,-1.72875 2.66125,-4.0625 0.7475,-2.335 0.83,-3.965 0.24375,-4.8975 z"
   inkscape:connector-curvature="0" /><path
   id="path56"
   style="fill:#000000;fill-opacity:0.1451;fill-rule:evenodd;stroke-width:1.25"
   d="M 44.145,6.58125 C 44.10125,7.02625 43.97,7.52375 43.76,8.085 43.6475,8.4125 43.4575,8.89125 43.2025,9.52125 43.15375,9.125 42.935,8.705 42.53875,8.26125 41.9775,7.63125 41.675,7.28 41.62625,7.21125 Z"
   inkscape:connector-curvature="0" /><path
   id="path58"
   style="fill:#000000;fill-opacity:0.2;fill-rule:evenodd;stroke-width:1.25"
   d="M 44.145,6.58125 C 44.10125,7.02625 43.97,7.52375 43.76,8.085 43.6475,8.4125 43.4575,8.89125 43.2025,9.52125 43.15375,9.125 42.935,8.705 42.53875,8.26125 41.9775,7.63125 41.675,7.28 41.62625,7.21125 Z"
   inkscape:connector-curvature="0" /><path
   id="path60"
   style="fill:#000000;fill-opacity:0.1451;fill-rule:evenodd;stroke-width:1.25"
   d="m 41.59125,11.9725 c 0.1175,-0.56125 0.1025,-0.9575 -0.03375,-1.19125 0.5375,-0.1175 0.98125,-0.16125 1.32875,-0.1425 0.0725,-0.395 0.175,-0.76625 0.31625,-1.1175 0.045,0.25875 0.035,0.5275 -0.03375,0.805 -0.16625,0.655 -0.68875,1.20125 -1.5775,1.64625 z"
   inkscape:connector-curvature="0" /><path
   id="path62"
   style="fill:#000000;fill-opacity:0.2;fill-rule:evenodd;stroke-width:1.25"
   d="m 41.59125,11.9725 c 0.1175,-0.56125 0.1025,-0.9575 -0.03375,-1.19125 0.5375,-0.1175 0.98125,-0.16125 1.32875,-0.1425 0.0725,-0.395 0.175,-0.76625 0.31625,-1.1175 0.045,0.25875 0.035,0.5275 -0.03375,0.805 -0.16625,0.655 -0.68875,1.20125 -1.5775,1.64625 z"
   inkscape:connector-curvature="0" /><path
   id="path64"
   style="fill:#000000;fill-opacity:0.1451;fill-rule:evenodd;stroke-width:1.25"
   d="M 43.76,8.085 C 43.97,7.52375 44.10125,7.02625 44.145,6.58125 45.26875,6.3225 46.1325,6.035 46.73875,5.7075 c 0.5125,-0.23375 0.9225,-0.57125 1.225,-1.015 v 2.485 l -0.595,0.9425 0.1025,0.21 C 47.12375,8.47125 46.875,8.77375 46.73875,9.2425 46.69,8.52 46.40125,8.17875 45.86375,8.2275 45.5375,8.27125 45.1025,8.6125 44.57,9.2425 c -0.56125,0.65 -0.83,1.12875 -0.81,1.43625 l 0.175,0.9425 c -0.01875,0.2825 0.16625,0.41875 0.5625,0.41875 -0.84,0.39625 -1.9,0.67875 -3.18375,0.84 l 0.2775,-0.9075 C 42.48,11.5275 43.0025,10.98125 43.16875,10.32625 43.2375,10.04875 43.2475,9.78 43.2025,9.52125 43.4575,8.89125 43.6475,8.4125 43.76,8.085 Z"
   inkscape:connector-curvature="0" /><path
   id="path66"
   style="fill:#000000;fill-opacity:0.2;fill-rule:evenodd;stroke-width:1.25"
   d="M 43.76,8.085 C 43.97,7.52375 44.10125,7.02625 44.145,6.58125 45.26875,6.3225 46.1325,6.035 46.73875,5.7075 c 0.5125,-0.23375 0.9225,-0.57125 1.225,-1.015 v 2.485 l -0.595,0.9425 0.1025,0.21 C 47.12375,8.47125 46.875,8.77375 46.73875,9.2425 46.69,8.52 46.40125,8.17875 45.86375,8.2275 45.5375,8.27125 45.1025,8.6125 44.57,9.2425 c -0.56125,0.65 -0.83,1.12875 -0.81,1.43625 l 0.175,0.9425 c -0.01875,0.2825 0.16625,0.41875 0.5625,0.41875 -0.84,0.39625 -1.9,0.67875 -3.18375,0.84 l 0.2775,-0.9075 C 42.48,11.5275 43.0025,10.98125 43.16875,10.32625 43.2375,10.04875 43.2475,9.78 43.2025,9.52125 43.4575,8.89125 43.6475,8.4125 43.76,8.085 Z"
   inkscape:connector-curvature="0" /><path
   id="path68"
   style="fill:#000000;fill-opacity:0.2;fill-rule:evenodd;stroke-width:1.25"
   d="M 43.76,8.085 C 43.97,7.52375 44.10125,7.02625 44.145,6.58125 45.26875,6.3225 46.1325,6.035 46.73875,5.7075 c 0.5125,-0.23375 0.9225,-0.57125 1.225,-1.015 v 2.485 l -0.595,0.9425 0.1025,0.21 C 47.12375,8.47125 46.875,8.77375 46.73875,9.2425 46.69,8.52 46.40125,8.17875 45.86375,8.2275 45.5375,8.27125 45.1025,8.6125 44.57,9.2425 c -0.56125,0.65 -0.83,1.12875 -0.81,1.43625 l 0.175,0.9425 c -0.01875,0.2825 0.16625,0.41875 0.5625,0.41875 -0.84,0.39625 -1.9,0.67875 -3.18375,0.84 l 0.2775,-0.9075 C 42.48,11.5275 43.0025,10.98125 43.16875,10.32625 43.2375,10.04875 43.2475,9.78 43.2025,9.52125 43.4575,8.89125 43.6475,8.4125 43.76,8.085 Z"
   inkscape:connector-curvature="0" /><path
   id="path70"
   style="fill:#000000;fill-opacity:0.1451;fill-rule:evenodd;stroke-width:1.25"
   d="m 42.74875,17.3975 c 0.06875,-0.9325 0.3125,-1.89 0.7325,-2.87125 0.56125,-1.075 0.97125,-1.9 1.22625,-2.48625 0.605,-0.02375 1.1225,-0.16 1.5425,-0.41875 L 46.46,11.445 c -0.025,0.98125 0.0775,2.4025 0.3125,4.2725 0.185,1.70375 0.26875,2.685 0.24375,2.93875 -0.04375,0.51375 -0.3125,1.22625 -0.805,2.13375 -0.46375,0.865 -0.7225,1.5875 -0.7675,2.17375 -0.0725,0.6975 0.07875,1.51375 0.455,2.44625 0.55625,1.40125 0.84875,2.1725 0.87375,2.30875 -2.0075,0.67875 -3.67625,1.6025 -5.005,2.76875 0.86375,0.04375 2.15875,0.15125 3.88625,0.3125 0.37125,1.44625 -1.835,2.86125 -6.61625,4.23875 -3.8025,1.06875 -7.00125,1.68 -9.58875,1.81625 -1.9825,0.1175 -4.34125,-0.04875 -7.07125,-0.48875 -2.33375,-0.395 -4.63375,-0.9325 -6.89375,-1.61125 C 13.16875,34.08125 10.5125,32.65625 7.5,30.4875 7.1725,30.01875 6.885,29.51625 6.62625,28.98375 c 1.79625,2.02625 3.77875,3.345 5.95125,3.95 2.79875,0.79625 5.90375,1.33375 9.3075,1.61125 3.525,0.27875 6.675,0.235 9.4525,-0.14125 1.21125,-0.16125 2.915,-0.34625 5.1075,-0.56125 1.72875,-0.37125 2.98875,-1.20125 3.78,-2.48125 0.23375,-0.375 -0.07875,-0.94625 -0.9425,-1.71875 -0.84,-0.76625 -1.1325,-1.29375 -0.87375,-1.57125 l 3.6025,-3.8525 c 0.79125,-0.9575 1.1425,-2.02625 1.05,-3.21875 -0.21,-2.3575 -0.3125,-3.55375 -0.3125,-3.6025 z"
   inkscape:connector-curvature="0" /><path
   id="path72"
   style="fill:#000000;fill-opacity:0.2;fill-rule:evenodd;stroke-width:1.25"
   d="m 42.74875,17.3975 c 0.06875,-0.9325 0.3125,-1.89 0.7325,-2.87125 0.56125,-1.075 0.97125,-1.9 1.22625,-2.48625 0.605,-0.02375 1.1225,-0.16 1.5425,-0.41875 L 46.46,11.445 c -0.025,0.98125 0.0775,2.4025 0.3125,4.2725 0.185,1.70375 0.26875,2.685 0.24375,2.93875 -0.04375,0.51375 -0.3125,1.22625 -0.805,2.13375 -0.46375,0.865 -0.7225,1.5875 -0.7675,2.17375 -0.0725,0.6975 0.07875,1.51375 0.455,2.44625 0.55625,1.40125 0.84875,2.1725 0.87375,2.30875 -2.0075,0.67875 -3.67625,1.6025 -5.005,2.76875 0.86375,0.04375 2.15875,0.15125 3.88625,0.3125 0.37125,1.44625 -1.835,2.86125 -6.61625,4.23875 -3.8025,1.06875 -7.00125,1.68 -9.58875,1.81625 -1.9825,0.1175 -4.34125,-0.04875 -7.07125,-0.48875 -2.33375,-0.395 -4.63375,-0.9325 -6.89375,-1.61125 C 13.16875,34.08125 10.5125,32.65625 7.5,30.4875 7.1725,30.01875 6.885,29.51625 6.62625,28.98375 c 1.79625,2.02625 3.77875,3.345 5.95125,3.95 2.79875,0.79625 5.90375,1.33375 9.3075,1.61125 3.525,0.27875 6.675,0.235 9.4525,-0.14125 1.21125,-0.16125 2.915,-0.34625 5.1075,-0.56125 1.72875,-0.37125 2.98875,-1.20125 3.78,-2.48125 0.23375,-0.375 -0.07875,-0.94625 -0.9425,-1.71875 -0.84,-0.76625 -1.1325,-1.29375 -0.87375,-1.57125 l 3.6025,-3.8525 c 0.79125,-0.9575 1.1425,-2.02625 1.05,-3.21875 -0.21,-2.3575 -0.3125,-3.55375 -0.3125,-3.6025 z"
   inkscape:connector-curvature="0" /><path
   id="path74"
   style="fill:#000000;fill-opacity:0.2;fill-rule:evenodd;stroke-width:1.25"
   d="m 42.74875,17.3975 c 0.06875,-0.9325 0.3125,-1.89 0.7325,-2.87125 0.56125,-1.075 0.97125,-1.9 1.22625,-2.48625 0.605,-0.02375 1.1225,-0.16 1.5425,-0.41875 L 46.46,11.445 c -0.025,0.98125 0.0775,2.4025 0.3125,4.2725 0.185,1.70375 0.26875,2.685 0.24375,2.93875 -0.04375,0.51375 -0.3125,1.22625 -0.805,2.13375 -0.46375,0.865 -0.7225,1.5875 -0.7675,2.17375 -0.0725,0.6975 0.07875,1.51375 0.455,2.44625 0.55625,1.40125 0.84875,2.1725 0.87375,2.30875 -2.0075,0.67875 -3.67625,1.6025 -5.005,2.76875 0.86375,0.04375 2.15875,0.15125 3.88625,0.3125 0.37125,1.44625 -1.835,2.86125 -6.61625,4.23875 -3.8025,1.06875 -7.00125,1.68 -9.58875,1.81625 -1.9825,0.1175 -4.34125,-0.04875 -7.07125,-0.48875 -2.33375,-0.395 -4.63375,-0.9325 -6.89375,-1.61125 C 13.16875,34.08125 10.5125,32.65625 7.5,30.4875 7.1725,30.01875 6.885,29.51625 6.62625,28.98375 c 1.79625,2.02625 3.77875,3.345 5.95125,3.95 2.79875,0.79625 5.90375,1.33375 9.3075,1.61125 3.525,0.27875 6.675,0.235 9.4525,-0.14125 1.21125,-0.16125 2.915,-0.34625 5.1075,-0.56125 1.72875,-0.37125 2.98875,-1.20125 3.78,-2.48125 0.23375,-0.375 -0.07875,-0.94625 -0.9425,-1.71875 -0.84,-0.76625 -1.1325,-1.29375 -0.87375,-1.57125 l 3.6025,-3.8525 c 0.79125,-0.9575 1.1425,-2.02625 1.05,-3.21875 -0.21,-2.3575 -0.3125,-3.55375 -0.3125,-3.6025 z"
   inkscape:connector-curvature="0" /><path
   id="path76"
   style="fill:#000000;fill-opacity:0.1451;fill-rule:evenodd;stroke-width:1.25"
   d="M 48.1,6.92875 47.96375,7.1775 V 4.6925 C 48.125,4.4825 48.2525,4.2575 48.345,4.0225 L 48.4175,3.745 48.56,4.8675 c 0.01875,0.865 -0.1325,1.5475 -0.46,2.06125 z"
   inkscape:connector-curvature="0" /><path
   id="path78"
   style="fill:#000000;fill-opacity:0.2;fill-rule:evenodd;stroke-width:1.25"
   d="M 48.1,6.92875 47.96375,7.1775 V 4.6925 C 48.125,4.4825 48.2525,4.2575 48.345,4.0225 L 48.4175,3.745 48.56,4.8675 c 0.01875,0.865 -0.1325,1.5475 -0.46,2.06125 z"
   inkscape:connector-curvature="0" /><path
   id="path80"
   style="fill:#000000;fill-opacity:0.2;fill-rule:evenodd;stroke-width:1.25"
   d="M 48.1,6.92875 47.96375,7.1775 V 4.6925 C 48.125,4.4825 48.2525,4.2575 48.345,4.0225 L 48.4175,3.745 48.56,4.8675 c 0.01875,0.865 -0.1325,1.5475 -0.46,2.06125 z"
   inkscape:connector-curvature="0" /><path
   id="path82"
   style="fill:#000000;fill-opacity:0.2;fill-rule:evenodd;stroke-width:1.25"
   d="M 48.1,6.92875 47.96375,7.1775 V 4.6925 C 48.125,4.4825 48.2525,4.2575 48.345,4.0225 L 48.4175,3.745 48.56,4.8675 c 0.01875,0.865 -0.1325,1.5475 -0.46,2.06125 z"
   inkscape:connector-curvature="0" /><path
   id="path84"
   style="fill:#000000;fill-opacity:0.1451;fill-rule:evenodd;stroke-width:1.25"
   d="m 46.73875,9.2425 c 0.14125,-0.46875 0.385,-0.77125 0.7325,-0.9125 0.815,1.845 1.645,3.3 2.485,4.375 0.7225,0.9325 1.445,2.1475 2.1725,3.6425 0.7425,1.58625 1.20125,2.89 1.3625,3.92 0.395,2.56375 0.57125,4.5275 0.5225,5.88 -0.06875,2.1925 -0.65,3.94 -1.74875,5.24875 -1.025,1.235 -3.76875,2.46125 -8.2225,3.67625 -6.21,1.655 -9.345,2.495 -9.41875,2.52 -1.9825,0.7475 -4.92125,0.87375 -8.8175,0.385 C 22.2125,37.50875 18.35,36.58625 14.21875,35.21 11.1675,34.18375 8.92625,32.61125 7.5,30.4875 c 3.0125,2.16875 5.66875,3.59375 7.98375,4.2675 2.26,0.67875 4.56,1.21625 6.89375,1.61125 2.73,0.44 5.08375,0.60625 7.06625,0.48875 2.5925,-0.14125 5.79125,-0.7475 9.59375,-1.81625 4.78125,-1.3775 6.9875,-2.7925 6.6125,-4.23875 -1.72875,-0.16125 -3.01875,-0.26875 -3.8875,-0.3125 1.33375,-1.16625 3.0025,-2.09 5.005,-2.76875 C 46.7475,27.5825 46.455,26.81125 45.89375,25.41 45.5225,24.4775 45.37125,23.66125 45.44,22.96375 45.48875,22.3775 45.7425,21.655 46.21125,20.79 c 0.4875,-0.9075 0.75625,-1.62 0.805,-2.13375 0.025,-0.25875 -0.05875,-1.235 -0.24375,-2.93875 -0.235,-1.865 -0.34125,-3.29125 -0.3175,-4.2725 0.235,-0.23 0.3275,-0.78125 0.28375,-1.64625 z"
   inkscape:connector-curvature="0" /><path
   id="path86"
   style="fill:#000000;fill-opacity:0.2;fill-rule:evenodd;stroke-width:1.25"
   d="m 46.73875,9.2425 c 0.14125,-0.46875 0.385,-0.77125 0.7325,-0.9125 0.815,1.845 1.645,3.3 2.485,4.375 0.7225,0.9325 1.445,2.1475 2.1725,3.6425 0.7425,1.58625 1.20125,2.89 1.3625,3.92 0.395,2.56375 0.57125,4.5275 0.5225,5.88 -0.06875,2.1925 -0.65,3.94 -1.74875,5.24875 -1.025,1.235 -3.76875,2.46125 -8.2225,3.67625 -6.21,1.655 -9.345,2.495 -9.41875,2.52 -1.9825,0.7475 -4.92125,0.87375 -8.8175,0.385 C 22.2125,37.50875 18.35,36.58625 14.21875,35.21 11.1675,34.18375 8.92625,32.61125 7.5,30.4875 c 3.0125,2.16875 5.66875,3.59375 7.98375,4.2675 2.26,0.67875 4.56,1.21625 6.89375,1.61125 2.73,0.44 5.08375,0.60625 7.06625,0.48875 2.5925,-0.14125 5.79125,-0.7475 9.59375,-1.81625 4.78125,-1.3775 6.9875,-2.7925 6.6125,-4.23875 -1.72875,-0.16125 -3.01875,-0.26875 -3.8875,-0.3125 1.33375,-1.16625 3.0025,-2.09 5.005,-2.76875 C 46.7475,27.5825 46.455,26.81125 45.89375,25.41 45.5225,24.4775 45.37125,23.66125 45.44,22.96375 45.48875,22.3775 45.7425,21.655 46.21125,20.79 c 0.4875,-0.9075 0.75625,-1.62 0.805,-2.13375 0.025,-0.25875 -0.05875,-1.235 -0.24375,-2.93875 -0.235,-1.865 -0.34125,-3.29125 -0.3175,-4.2725 0.235,-0.23 0.3275,-0.78125 0.28375,-1.64625 z"
   inkscape:connector-curvature="0" /><path
   id="path88"
   style="fill:#000000;fill-opacity:0.2;fill-rule:evenodd;stroke-width:1.25"
   d="m 46.73875,9.2425 c 0.14125,-0.46875 0.385,-0.77125 0.7325,-0.9125 0.815,1.845 1.645,3.3 2.485,4.375 0.7225,0.9325 1.445,2.1475 2.1725,3.6425 0.7425,1.58625 1.20125,2.89 1.3625,3.92 0.395,2.56375 0.57125,4.5275 0.5225,5.88 -0.06875,2.1925 -0.65,3.94 -1.74875,5.24875 -1.025,1.235 -3.76875,2.46125 -8.2225,3.67625 -6.21,1.655 -9.345,2.495 -9.41875,2.52 -1.9825,0.7475 -4.92125,0.87375 -8.8175,0.385 C 22.2125,37.50875 18.35,36.58625 14.21875,35.21 11.1675,34.18375 8.92625,32.61125 7.5,30.4875 c 3.0125,2.16875 5.66875,3.59375 7.98375,4.2675 2.26,0.67875 4.56,1.21625 6.89375,1.61125 2.73,0.44 5.08375,0.60625 7.06625,0.48875 2.5925,-0.14125 5.79125,-0.7475 9.59375,-1.81625 4.78125,-1.3775 6.9875,-2.7925 6.6125,-4.23875 -1.72875,-0.16125 -3.01875,-0.26875 -3.8875,-0.3125 1.33375,-1.16625 3.0025,-2.09 5.005,-2.76875 C 46.7475,27.5825 46.455,26.81125 45.89375,25.41 45.5225,24.4775 45.37125,23.66125 45.44,22.96375 45.48875,22.3775 45.7425,21.655 46.21125,20.79 c 0.4875,-0.9075 0.75625,-1.62 0.805,-2.13375 0.025,-0.25875 -0.05875,-1.235 -0.24375,-2.93875 -0.235,-1.865 -0.34125,-3.29125 -0.3175,-4.2725 0.235,-0.23 0.3275,-0.78125 0.28375,-1.64625 z"
   inkscape:connector-curvature="0" /><path
   id="path90"
   style="fill:#000000;fill-opacity:0.2;fill-rule:evenodd;stroke-width:1.25"
   d="m 46.73875,9.2425 c 0.14125,-0.46875 0.385,-0.77125 0.7325,-0.9125 0.815,1.845 1.645,3.3 2.485,4.375 0.7225,0.9325 1.445,2.1475 2.1725,3.6425 0.7425,1.58625 1.20125,2.89 1.3625,3.92 0.395,2.56375 0.57125,4.5275 0.5225,5.88 -0.06875,2.1925 -0.65,3.94 -1.74875,5.24875 -1.025,1.235 -3.76875,2.46125 -8.2225,3.67625 -6.21,1.655 -9.345,2.495 -9.41875,2.52 -1.9825,0.7475 -4.92125,0.87375 -8.8175,0.385 C 22.2125,37.50875 18.35,36.58625 14.21875,35.21 11.1675,34.18375 8.92625,32.61125 7.5,30.4875 c 3.0125,2.16875 5.66875,3.59375 7.98375,4.2675 2.26,0.67875 4.56,1.21625 6.89375,1.61125 2.73,0.44 5.08375,0.60625 7.06625,0.48875 2.5925,-0.14125 5.79125,-0.7475 9.59375,-1.81625 4.78125,-1.3775 6.9875,-2.7925 6.6125,-4.23875 -1.72875,-0.16125 -3.01875,-0.26875 -3.8875,-0.3125 1.33375,-1.16625 3.0025,-2.09 5.005,-2.76875 C 46.7475,27.5825 46.455,26.81125 45.89375,25.41 45.5225,24.4775 45.37125,23.66125 45.44,22.96375 45.48875,22.3775 45.7425,21.655 46.21125,20.79 c 0.4875,-0.9075 0.75625,-1.62 0.805,-2.13375 0.025,-0.25875 -0.05875,-1.235 -0.24375,-2.93875 -0.235,-1.865 -0.34125,-3.29125 -0.3175,-4.2725 0.235,-0.23 0.3275,-0.78125 0.28375,-1.64625 z"
   inkscape:connector-curvature="0" /><path
   id="path92"
   style="fill:#000000;fill-opacity:0.1451;fill-rule:evenodd;stroke-width:1.25"
   d="M 20.38125,5.7075 20.42,5.74125 20,4.61875 20.17125,4.375 20.84,5.84375 h -0.03875 c -0.25375,0.49375 -0.205,1.065 0.14125,1.715 C 20.615,7.53875 20.21,7.455 19.71625,7.31375 19.18,7.1525 18.775,7.03625 18.49125,6.9675 l 0.63,-0.9475 c 0.56125,0.3025 0.98125,0.445 1.26,0.42 0.3025,-0.025 0.3025,-0.26875 0,-0.7325 z"
   inkscape:connector-curvature="0" /><path
   id="path94"
   style="fill:#000000;fill-opacity:0.1451;fill-rule:evenodd;stroke-width:1.25"
   d="M 19.82375,3.535 19.96125,3.92 19.82375,3.88625 19.71625,3.955 Z"
   inkscape:connector-curvature="0" /><path
   id="path96"
   style="fill:#000000;fill-opacity:0.1451;fill-rule:evenodd;stroke-width:1.25"
   d="m 20.38125,5.7075 c 0.3025,0.46375 0.3025,0.7075 0,0.7325 -0.27875,0.025 -0.69875,-0.1175 -1.26,-0.42 l 0.1075,-0.17625 C 19.6,5.65875 19.985,5.615 20.38125,5.7075 Z"
   inkscape:connector-curvature="0" /><path
   id="path98"
   style="fill:#000000;fill-opacity:0.2;fill-rule:evenodd;stroke-width:1.25"
   d="m 20.38125,5.7075 c 0.3025,0.46375 0.3025,0.7075 0,0.7325 -0.27875,0.025 -0.69875,-0.1175 -1.26,-0.42 l 0.1075,-0.17625 C 19.6,5.65875 19.985,5.615 20.38125,5.7075 Z"
   inkscape:connector-curvature="0" /><path
   id="path100"
   style="fill:#000000;fill-opacity:0.4;fill-rule:evenodd;stroke-width:1.25"
   d="m 20.9425,7.55875 0.42,0.03875 C 21.3375,7.06 21.1625,6.47375 20.835,5.84375 h 0.14125 c 0.63,0 1.13375,0.08375 1.50375,0.25 0,0.3025 -0.0087,0.75625 -0.03375,1.36125 0,0.51375 0.04875,0.9575 0.14125,1.33375 l 0.1375,0.45375 -0.1025,0.24375 0.24375,0.035 c 0.16625,0.2775 0.35125,0.42 0.56125,0.42 l -0.84,1.1175 C 22.53875,10.9225 22.515,10.6875 22.515,10.36125 22.515,10.03375 22.48,9.79 22.4125,9.62875 22.06,9.16 21.80625,8.80875 21.64,8.57875 c -0.32125,-0.42 -0.55625,-0.76125 -0.6975,-1.02 z"
   inkscape:connector-curvature="0" /><path
   id="path102"
   style="fill:#000000;fill-opacity:0.1451;fill-rule:evenodd;stroke-width:1.25"
   d="M 22.5875,8.78375 C 22.495,8.4125 22.44625,7.96875 22.44625,7.455 22.47125,6.85 22.485,6.39125 22.485,6.08875 L 22.8325,6.23 c 0.44375,0.25875 0.75625,0.36125 0.94625,0.3125 -0.23375,0.82 -0.585,1.71875 -1.04875,2.695 z"
   inkscape:connector-curvature="0" /><path
   id="path104"
   style="fill:#000000;fill-opacity:0.4;fill-rule:evenodd;stroke-width:1.25"
   d="M 22.5875,8.78375 C 22.495,8.4125 22.44625,7.96875 22.44625,7.455 22.47125,6.85 22.485,6.39125 22.485,6.08875 L 22.8325,6.23 c 0.44375,0.25875 0.75625,0.36125 0.94625,0.3125 -0.23375,0.82 -0.585,1.71875 -1.04875,2.695 z"
   inkscape:connector-curvature="0" /><path
   id="path106"
   style="fill:#000000;fill-opacity:0.1451;fill-rule:evenodd;stroke-width:1.25"
   d="M 22.86625,9.52125 C 23.2425,9.49625 23.61375,9.335 23.98875,9.0325 L 23.4275,9.94125 c -0.21,0 -0.395,-0.1425 -0.56125,-0.42 z"
   inkscape:connector-curvature="0" /><path
   id="path108"
   style="fill:#000000;fill-opacity:0.4;fill-rule:evenodd;stroke-width:1.25"
   d="M 22.86625,9.52125 C 23.2425,9.49625 23.61375,9.335 23.98875,9.0325 L 23.4275,9.94125 c -0.21,0 -0.395,-0.1425 -0.56125,-0.42 z"
   inkscape:connector-curvature="0" /><path
   id="path110"
   style="fill:#000000;fill-opacity:0.2;fill-rule:evenodd;stroke-width:1.25"
   d="M 22.6225,9.48625 22.73,9.2425 22.86625,9.52125 Z"
   inkscape:connector-curvature="0" /><path
   id="path112"
   style="fill:#000000;fill-opacity:0.4;fill-rule:evenodd;stroke-width:1.25"
   d="M 22.6225,9.48625 22.73,9.2425 22.86625,9.52125 Z"
   inkscape:connector-curvature="0" /><path
   id="path114"
   style="fill:#000000;fill-opacity:0.1451;fill-rule:evenodd;stroke-width:1.25"
   d="M 22.86625,9.52125 22.73,9.2425 c 0.46375,-0.98125 0.815,-1.88 1.04875,-2.695 0.16125,-0.04875 0.3125,-0.19 0.455,-0.42 0.44375,0.7475 0.36125,1.71375 -0.245,2.905 -0.375,0.3025 -0.74625,0.46375 -1.1225,0.48875 z"
   inkscape:connector-curvature="0" /><path
   id="path116"
   style="fill:#000000;fill-opacity:0.2;fill-rule:evenodd;stroke-width:1.25"
   d="M 22.86625,9.52125 22.73,9.2425 c 0.46375,-0.98125 0.815,-1.88 1.04875,-2.695 0.16125,-0.04875 0.3125,-0.19 0.455,-0.42 0.44375,0.7475 0.36125,1.71375 -0.245,2.905 -0.375,0.3025 -0.74625,0.46375 -1.1225,0.48875 z"
   inkscape:connector-curvature="0" /><path
   id="path118"
   style="fill:#000000;fill-opacity:0.4;fill-rule:evenodd;stroke-width:1.25"
   d="M 22.86625,9.52125 22.73,9.2425 c 0.46375,-0.98125 0.815,-1.88 1.04875,-2.695 0.16125,-0.04875 0.3125,-0.19 0.455,-0.42 0.44375,0.7475 0.36125,1.71375 -0.245,2.905 -0.375,0.3025 -0.74625,0.46375 -1.1225,0.48875 z"
   inkscape:connector-curvature="0" /><path
   id="path120"
   style="fill:#000000;fill-opacity:0.1451;fill-rule:evenodd;stroke-width:1.25"
   d="m 20.9425,7.55875 c -0.35125,-0.65 -0.395,-1.22125 -0.14125,-1.715 H 20.835 c 0.3275,0.63 0.5025,1.21625 0.5275,1.75375 z"
   inkscape:connector-curvature="0" /><path
   id="path122"
   style="fill:#000000;fill-opacity:0.4;fill-rule:evenodd;stroke-width:1.25"
   d="m 20.9425,7.55875 c -0.35125,-0.65 -0.395,-1.22125 -0.14125,-1.715 H 20.835 c 0.3275,0.63 0.5025,1.21625 0.5275,1.75375 z"
   inkscape:connector-curvature="0" /><path
   id="path124"
   style="fill:#000000;fill-opacity:0.4;fill-rule:evenodd;stroke-width:1.25"
   d="m 26.895,9.79875 c 0.43875,-0.01875 0.9325,0.05875 1.46875,0.25 0.18625,0.04375 0.665,0.23375 1.43625,0.56125 0.04375,0.5125 0.06875,1.3275 0.06875,2.44625 l -0.84,-0.21 C 28.33,12.705 27.685,12.42625 27.1,12.00625 c -0.46375,-0.3275 -1.00125,-0.84 -1.60625,-1.5375 z"
   inkscape:connector-curvature="0" /><path
   id="path126"
   style="fill:#000000;fill-opacity:0.1451;fill-rule:evenodd;stroke-width:1.25"
   d="m 30.81,13.965 c 0.655,-0.18625 1.25,-0.93375 1.7875,-2.24125 -0.0925,1.1475 -0.35125,2.045 -0.77125,2.695 C 31.5725,14.74625 31.255,14.97 30.88375,15.0875 L 30.7425,15.12125 C 30.86,14.60875 30.88375,14.22375 30.81,13.965 Z"
   inkscape:connector-curvature="0" /><path
   id="path128"
   style="fill:#000000;fill-opacity:0.4;fill-rule:evenodd;stroke-width:1.25"
   d="m 30.81,13.965 c 0.655,-0.18625 1.25,-0.93375 1.7875,-2.24125 -0.0925,1.1475 -0.35125,2.045 -0.77125,2.695 C 31.5725,14.74625 31.255,14.97 30.88375,15.0875 L 30.7425,15.12125 C 30.86,14.60875 30.88375,14.22375 30.81,13.965 Z"
   inkscape:connector-curvature="0" /><path
   id="path130"
   style="fill:#000000;fill-opacity:0.1451;fill-rule:evenodd;stroke-width:1.25"
   d="M 30.56625,13.4425 C 30.425,13.3 30.195,13.17375 29.86875,13.05625 c 0,-1.1225 -0.025,-1.93875 -0.06875,-2.45125 l 0.4875,0.17625 c 0.48875,0.185 0.79125,0.2925 0.90875,0.3125 z"
   inkscape:connector-curvature="0" /><path
   id="path132"
   style="fill:#000000;fill-opacity:0.4;fill-rule:evenodd;stroke-width:1.25"
   d="M 30.56625,13.4425 C 30.425,13.3 30.195,13.17375 29.86875,13.05625 c 0,-1.1225 -0.025,-1.93875 -0.06875,-2.45125 l 0.4875,0.17625 c 0.48875,0.185 0.79125,0.2925 0.90875,0.3125 z"
   inkscape:connector-curvature="0" /><path
   id="path134"
   style="fill:#000000;fill-opacity:0.1451;fill-rule:evenodd;stroke-width:1.25"
   d="m 30.81,13.965 c -0.04375,-0.23 -0.12625,-0.40625 -0.24375,-0.5225 l 0.63,-2.34875 c 0.65375,0.14125 1.1225,-0.02 1.40125,-0.48875 v 1.11875 C 32.06,13.03125 31.465,13.77875 30.81,13.965 Z"
   inkscape:connector-curvature="0" /><path
   id="path136"
   style="fill:#000000;fill-opacity:0.2;fill-rule:evenodd;stroke-width:1.25"
   d="m 30.81,13.965 c -0.04375,-0.23 -0.12625,-0.40625 -0.24375,-0.5225 l 0.63,-2.34875 c 0.65375,0.14125 1.1225,-0.02 1.40125,-0.48875 v 1.11875 C 32.06,13.03125 31.465,13.77875 30.81,13.965 Z"
   inkscape:connector-curvature="0" /><path
   id="path138"
   style="fill:#000000;fill-opacity:0.4;fill-rule:evenodd;stroke-width:1.25"
   d="m 30.81,13.965 c -0.04375,-0.23 -0.12625,-0.40625 -0.24375,-0.5225 l 0.63,-2.34875 c 0.65375,0.14125 1.1225,-0.02 1.40125,-0.48875 v 1.11875 C 32.06,13.03125 31.465,13.77875 30.81,13.965 Z"
   inkscape:connector-curvature="0" /><path
   id="path140"
   style="fill:#000000;fill-opacity:0.4;fill-rule:evenodd;stroke-width:1.25"
   d="m 38.545,11.025 c -0.79125,1.1675 -1.69,1.7875 -2.695,1.855 l 0.03875,0.17625 C 35.44375,12.9875 35.07375,12.88 34.765,12.74375 34.72125,12.67 34.74625,12.61125 34.83875,12.5675 l 0.87375,-0.94625 c 0.06875,-0.045 0.37125,-0.10375 0.90875,-0.17625 0.46875,-0.06875 1.06375,-0.21 1.7875,-0.42 z"
   inkscape:connector-curvature="0" /><path
   id="path142"
   style="fill:#000000;fill-opacity:0.1451;fill-rule:evenodd;stroke-width:1.25"
   d="m 39.6675,13.2325 c -0.63,0.0675 -1.015,0.1025 -1.15625,0.1025 -1.44625,-0.1175 -2.32,-0.21 -2.6225,-0.27875 L 35.85,12.88 c 1.005,-0.0675 1.90375,-0.6875 2.695,-1.855 0.19,-0.025 0.5275,-0.03375 1.015,-0.03375 0.425,0.02375 0.7475,0 0.9825,-0.06875 0.0675,-0.025 0.185,-0.1075 0.35125,-0.24875 0.1125,-0.1175 0.24375,-0.15125 0.385,-0.1025 0.1125,0.04875 0.21,0.11625 0.27875,0.21 -1.49375,0.395 -2.52875,1.08375 -3.115,2.065 0.605,0.14125 1.3275,0.17125 2.1675,0.1025 0.1175,0.1175 0.19125,0.21 0.21,0.28375 -0.22875,-0.04875 -0.615,-0.04875 -1.1525,0 z"
   inkscape:connector-curvature="0" /><path
   id="path144"
   style="fill:#000000;fill-opacity:0.4;fill-rule:evenodd;stroke-width:1.25"
   d="m 39.6675,13.2325 c -0.63,0.0675 -1.015,0.1025 -1.15625,0.1025 -1.44625,-0.1175 -2.32,-0.21 -2.6225,-0.27875 L 35.85,12.88 c 1.005,-0.0675 1.90375,-0.6875 2.695,-1.855 0.19,-0.025 0.5275,-0.03375 1.015,-0.03375 0.425,0.02375 0.7475,0 0.9825,-0.06875 0.0675,-0.025 0.185,-0.1075 0.35125,-0.24875 0.1125,-0.1175 0.24375,-0.15125 0.385,-0.1025 0.1125,0.04875 0.21,0.11625 0.27875,0.21 -1.49375,0.395 -2.52875,1.08375 -3.115,2.065 0.605,0.14125 1.3275,0.17125 2.1675,0.1025 0.1175,0.1175 0.19125,0.21 0.21,0.28375 -0.22875,-0.04875 -0.615,-0.04875 -1.1525,0 z"
   inkscape:connector-curvature="0" /><path
   id="path146"
   style="fill:#000000;fill-opacity:0.1451;fill-rule:evenodd;stroke-width:1.25"
   d="M 40.82,13.2325 C 40.80125,13.16375 40.7275,13.07125 40.61,12.95375 L 41.31375,12.88 41.1725,13.4075 Z"
   inkscape:connector-curvature="0" /><path
   id="path148"
   style="fill:#000000;fill-opacity:0.2;fill-rule:evenodd;stroke-width:1.25"
   d="M 40.82,13.2325 C 40.80125,13.16375 40.7275,13.07125 40.61,12.95375 L 41.31375,12.88 41.1725,13.4075 Z"
   inkscape:connector-curvature="0" /><path
   id="path150"
   style="fill:#000000;fill-opacity:0.4;fill-rule:evenodd;stroke-width:1.25"
   d="M 40.82,13.2325 C 40.80125,13.16375 40.7275,13.07125 40.61,12.95375 L 41.31375,12.88 41.1725,13.4075 Z"
   inkscape:connector-curvature="0" /><path
   id="path152"
   style="fill:#000000;fill-opacity:0.1451;fill-rule:evenodd;stroke-width:1.25"
   d="m 38.4425,12.84625 c 0.58625,-0.98125 1.62125,-1.67 3.115,-2.065 0.14125,0.23375 0.15125,0.63 0.03375,1.19125 -0.46875,0.22875 -1.08375,0.4975 -1.855,0.805 0.3275,-0.0725 0.62,-0.01375 0.87375,0.17625 -0.84,0.06875 -1.5625,0.03375 -2.1675,-0.1075 z"
   inkscape:connector-curvature="0" /><path
   id="path154"
   style="fill:#000000;fill-opacity:0.2;fill-rule:evenodd;stroke-width:1.25"
   d="m 38.4425,12.84625 c 0.58625,-0.98125 1.62125,-1.67 3.115,-2.065 0.14125,0.23375 0.15125,0.63 0.03375,1.19125 -0.46875,0.22875 -1.08375,0.4975 -1.855,0.805 0.3275,-0.0725 0.62,-0.01375 0.87375,0.17625 -0.84,0.06875 -1.5625,0.03375 -2.1675,-0.1075 z"
   inkscape:connector-curvature="0" /><path
   id="path156"
   style="fill:#000000;fill-opacity:0.4;fill-rule:evenodd;stroke-width:1.25"
   d="m 38.4425,12.84625 c 0.58625,-0.98125 1.62125,-1.67 3.115,-2.065 0.14125,0.23375 0.15125,0.63 0.03375,1.19125 -0.46875,0.22875 -1.08375,0.4975 -1.855,0.805 0.3275,-0.0725 0.62,-0.01375 0.87375,0.17625 -0.84,0.06875 -1.5625,0.03375 -2.1675,-0.1075 z"
   inkscape:connector-curvature="0" /><path
   id="path158"
   style="fill:#000000;fill-opacity:0.1451;fill-rule:evenodd;stroke-width:1.25"
   d="m 40.61,12.94875 c -0.25375,-0.185 -0.54625,-0.24375 -0.87375,-0.17125 0.77125,-0.3075 1.39125,-0.57625 1.855,-0.81 l -0.2775,0.9125 z"
   inkscape:connector-curvature="0" /><path
   id="path160"
   style="fill:#000000;fill-opacity:0.2;fill-rule:evenodd;stroke-width:1.25"
   d="m 40.61,12.94875 c -0.25375,-0.185 -0.54625,-0.24375 -0.87375,-0.17125 0.77125,-0.3075 1.39125,-0.57625 1.855,-0.81 l -0.2775,0.9125 z"
   inkscape:connector-curvature="0" /><path
   id="path162"
   style="fill:#000000;fill-opacity:0.2;fill-rule:evenodd;stroke-width:1.25"
   d="m 40.61,12.94875 c -0.25375,-0.185 -0.54625,-0.24375 -0.87375,-0.17125 0.77125,-0.3075 1.39125,-0.57625 1.855,-0.81 l -0.2775,0.9125 z"
   inkscape:connector-curvature="0" /><path
   id="path164"
   style="fill:#000000;fill-opacity:0.4;fill-rule:evenodd;stroke-width:1.25"
   d="m 40.61,12.94875 c -0.25375,-0.185 -0.54625,-0.24375 -0.87375,-0.17125 0.77125,-0.3075 1.39125,-0.57625 1.855,-0.81 l -0.2775,0.9125 z"
   inkscape:connector-curvature="0" /><path
   id="path166"
   style="fill:#000000;fill-opacity:0.1451;fill-rule:evenodd;stroke-width:1.25"
   d="m 44.7075,12.04 h -0.21 L 44.78,11.90375 Z"
   inkscape:connector-curvature="0" /><path
   id="path168"
   style="fill:#000000;fill-opacity:0.2;fill-rule:evenodd;stroke-width:1.25"
   d="m 44.7075,12.04 h -0.21 L 44.78,11.90375 Z"
   inkscape:connector-curvature="0" /><path
   id="path170"
   style="fill:#000000;fill-opacity:0.4;fill-rule:evenodd;stroke-width:1.25"
   d="m 44.7075,12.04 h -0.21 L 44.78,11.90375 Z"
   inkscape:connector-curvature="0" /><path
   id="path172"
   style="fill:#000000;fill-opacity:0.1451;fill-rule:evenodd;stroke-width:1.25"
   d="M 44.7075,12.04 44.775,11.89875 44.4975,12.04 c -0.39625,0 -0.58625,-0.14125 -0.5625,-0.41875 l -0.175,-0.9475 c -0.02,-0.3025 0.24375,-0.78125 0.805,-1.43125 0.5375,-0.63 0.9725,-0.97125 1.295,-1.015 0.53625,-0.04875 0.83,0.2875 0.87875,1.015 C 46.5475,9.78 46.455,10.5125 46.455,11.445 l -0.21,0.17625 C 45.83,11.88 45.3125,12.01625 44.7075,12.04 Z"
   inkscape:connector-curvature="0" /><path
   id="path174"
   style="fill:#000000;fill-opacity:0.2;fill-rule:evenodd;stroke-width:1.25"
   d="M 44.7075,12.04 44.775,11.89875 44.4975,12.04 c -0.39625,0 -0.58625,-0.14125 -0.5625,-0.41875 l -0.175,-0.9475 c -0.02,-0.3025 0.24375,-0.78125 0.805,-1.43125 0.5375,-0.63 0.9725,-0.97125 1.295,-1.015 0.53625,-0.04875 0.83,0.2875 0.87875,1.015 C 46.5475,9.78 46.455,10.5125 46.455,11.445 l -0.21,0.17625 C 45.83,11.88 45.3125,12.01625 44.7075,12.04 Z"
   inkscape:connector-curvature="0" /><path
   id="path176"
   style="fill:#000000;fill-opacity:0.2;fill-rule:evenodd;stroke-width:1.25"
   d="M 44.7075,12.04 44.775,11.89875 44.4975,12.04 c -0.39625,0 -0.58625,-0.14125 -0.5625,-0.41875 l -0.175,-0.9475 c -0.02,-0.3025 0.24375,-0.78125 0.805,-1.43125 0.5375,-0.63 0.9725,-0.97125 1.295,-1.015 0.53625,-0.04875 0.83,0.2875 0.87875,1.015 C 46.5475,9.78 46.455,10.5125 46.455,11.445 l -0.21,0.17625 C 45.83,11.88 45.3125,12.01625 44.7075,12.04 Z"
   inkscape:connector-curvature="0" /><path
   id="path178"
   style="fill:#000000;fill-opacity:0.4;fill-rule:evenodd;stroke-width:1.25"
   d="M 44.7075,12.04 44.775,11.89875 44.4975,12.04 c -0.39625,0 -0.58625,-0.14125 -0.5625,-0.41875 l -0.175,-0.9475 c -0.02,-0.3025 0.24375,-0.78125 0.805,-1.43125 0.5375,-0.63 0.9725,-0.97125 1.295,-1.015 0.53625,-0.04875 0.83,0.2875 0.87875,1.015 C 46.5475,9.78 46.455,10.5125 46.455,11.445 l -0.21,0.17625 C 45.83,11.88 45.3125,12.01625 44.7075,12.04 Z"
   inkscape:connector-curvature="0" /><path
   id="path180"
   style="fill:#000000;fill-opacity:0.1451;fill-rule:evenodd;stroke-width:1.25"
   d="M 46.73875,9.79875 C 46.7825,10.66375 46.69,11.215 46.46,11.445 c 0,-0.9325 0.0925,-1.665 0.27875,-2.2025 z"
   inkscape:connector-curvature="0" /><path
   id="path182"
   style="fill:#000000;fill-opacity:0.2;fill-rule:evenodd;stroke-width:1.25"
   d="M 46.73875,9.79875 C 46.7825,10.66375 46.69,11.215 46.46,11.445 c 0,-0.9325 0.0925,-1.665 0.27875,-2.2025 z"
   inkscape:connector-curvature="0" /><path
   id="path184"
   style="fill:#000000;fill-opacity:0.2;fill-rule:evenodd;stroke-width:1.25"
   d="M 46.73875,9.79875 C 46.7825,10.66375 46.69,11.215 46.46,11.445 c 0,-0.9325 0.0925,-1.665 0.27875,-2.2025 z"
   inkscape:connector-curvature="0" /><path
   id="path186"
   style="fill:#000000;fill-opacity:0.2;fill-rule:evenodd;stroke-width:1.25"
   d="M 46.73875,9.79875 C 46.7825,10.66375 46.69,11.215 46.46,11.445 c 0,-0.9325 0.0925,-1.665 0.27875,-2.2025 z"
   inkscape:connector-curvature="0" /><path
   id="path188"
   style="fill:#000000;fill-opacity:0.4;fill-rule:evenodd;stroke-width:1.25"
   d="M 46.73875,9.79875 C 46.7825,10.66375 46.69,11.215 46.46,11.445 c 0,-0.9325 0.0925,-1.665 0.27875,-2.2025 z"
   inkscape:connector-curvature="0" /><path
   id="path190"
   style="fill:#000000;fill-opacity:0.2;fill-rule:evenodd;stroke-width:1.25"
   d="M 9.395,15.54125 C 9.605,15.19 10.0825,14.77 10.83,14.28125 9.63875,16.1475 8.89125,17.3725 8.58875,17.95375 l 0.21,-0.77125 c 0.21,-0.835 0.405,-1.3875 0.59625,-1.64125 z"
   inkscape:connector-curvature="0" /><path
   id="path192"
   style="fill:#000000;fill-opacity:0.2;fill-rule:evenodd;stroke-width:1.25"
   d="m 20.59125,3.98875 -0.42,0.38625 -0.21,-0.455 z"
   inkscape:connector-curvature="0" /><path
   id="path194"
   style="fill:#000000;fill-opacity:0.2;fill-rule:evenodd;stroke-width:1.25"
   d="m 17.05625,8.0175 1.015,-1.19125 0.42,0.14125 -1.01625,1.47 c -0.11125,0.21 -0.32125,0.53625 -0.62875,0.97625 -0.21,0.37625 -0.30375,0.7275 -0.27875,1.05 0.04875,0.37625 0.27875,0.74625 0.7025,1.1225 0.48875,0.42 0.78125,0.7325 0.875,0.9425 -0.18625,0 -0.665,-0.1025 -1.43625,-0.3125 -0.605,-0.16625 -1.08375,-0.185 -1.435,-0.06875 -0.1425,0.045 -0.5475,0.36125 -1.22625,0.9425 -0.46375,0.39625 -1.08375,1.09875 -1.855,2.1 -0.5375,0.58625 -0.85,0.9575 -0.9425,1.11875 -0.4,0.7025 -0.36125,1.44 0.1025,2.20625 0.185,0.3275 0.645,0.7225 1.3675,1.19125 l 0.84,0.42 0.45375,0.42 c -0.445,0.1375 -1.21625,0.1025 -2.31,-0.1025 C 10.7225,20.2775 10.025,20.3025 9.605,20.5125 L 9.53125,20.405 c 0.63,-0.56125 1.225,-0.7225 1.7875,-0.48875 -0.48875,-0.5125 -0.83,-0.86375 -1.01625,-1.05 C 10.04875,18.54 9.9175,18.085 9.9175,17.5 c 0.02375,-0.63 0.2925,-1.28 0.805,-1.95875 0.605,-0.815 0.98125,-1.435 1.12375,-1.855 l -0.5275,0.21 0.175,-0.1025 c 0.46375,-0.5375 0.81625,-0.9325 1.05,-1.19125 0.60625,-0.69875 1.05,-1.47 1.32875,-2.31 l 0.595,-1.435 -0.1025,0.4875 c -0.02375,0.16625 -0.1025,0.5275 -0.24375,1.08375 -0.1175,0.5625 -0.1075,0.92375 0.03375,1.08875 0.1175,0.16125 0.39625,0.27875 0.84,0.3475 l 0.9475,0.06875 c -0.5375,-0.58125 -0.635,-1.27 -0.28375,-2.06125 0.21,-0.46875 0.67375,-1.08875 1.3975,-1.855 z"
   inkscape:connector-curvature="0" /><path
   id="path196"
   style="fill:#000000;fill-opacity:0.1451;fill-rule:evenodd;stroke-width:1.25"
   d="M 7.6075,20.7225 7.53875,21.035 c -0.21,1.37625 -0.41,2.3 -0.595,2.76375 v -0.1025 c 0,-0.81625 0.21875,-1.8075 0.66375,-2.97375 z"
   inkscape:connector-curvature="0" /><path
   id="path198"
   style="fill:#000000;fill-opacity:0.2;fill-rule:evenodd;stroke-width:1.25"
   d="M 7.6075,20.7225 7.53875,21.035 c -0.21,1.37625 -0.41,2.3 -0.595,2.76375 v -0.1025 c 0,-0.81625 0.21875,-1.8075 0.66375,-2.97375 z"
   inkscape:connector-curvature="0" /><path
   id="path200"
   style="fill:#000000;fill-opacity:0.1451;fill-rule:evenodd;stroke-width:1.25"
   d="m 9.605,20.5125 c -0.42,0.23375 -0.72375,0.66375 -0.91375,1.29375 -0.01875,0.0925 -0.1175,0.7125 -0.27875,1.855 -0.14125,0.9325 -0.35125,1.5875 -0.62875,1.95875 L 7.64125,25.44375 C 7.525,24.6525 7.54875,23.915 7.715,23.24125 c 0.0925,-0.42 0.3025,-0.8975 0.63,-1.435 0.34625,-0.58625 0.74625,-1.05 1.18625,-1.40125 z"
   inkscape:connector-curvature="0" /><path
   id="path202"
   style="fill:#000000;fill-opacity:0.2;fill-rule:evenodd;stroke-width:1.25"
   d="m 9.605,20.5125 c -0.42,0.23375 -0.72375,0.66375 -0.91375,1.29375 -0.01875,0.0925 -0.1175,0.7125 -0.27875,1.855 -0.14125,0.9325 -0.35125,1.5875 -0.62875,1.95875 L 7.64125,25.44375 C 7.525,24.6525 7.54875,23.915 7.715,23.24125 c 0.0925,-0.42 0.3025,-0.8975 0.63,-1.435 0.34625,-0.58625 0.74625,-1.05 1.18625,-1.40125 z"
   inkscape:connector-curvature="0" /><path
   id="path204"
   style="fill:#000000;fill-opacity:0.1451;fill-rule:evenodd;stroke-width:1.25"
   d="m 7.67625,25.76125 -0.035,-0.3175 0.1425,0.17625 z"
   inkscape:connector-curvature="0" /><path
   id="path206"
   style="fill:#000000;fill-opacity:0.2;fill-rule:evenodd;stroke-width:1.25"
   d="m 7.67625,25.76125 -0.035,-0.3175 0.1425,0.17625 z"
   inkscape:connector-curvature="0" /><path
   id="path208"
   style="fill:#000000;fill-opacity:0.2;fill-rule:evenodd;stroke-width:1.25"
   d="m 7.67625,25.76125 -0.035,-0.3175 0.1425,0.17625 z"
   inkscape:connector-curvature="0" /><path
   id="path210"
   style="fill:#000000;fill-opacity:0.1451;fill-rule:evenodd;stroke-width:1.25"
   d="m 19.12125,6.02 -0.63,0.9475 -0.42,-0.14125 C 18.4225,6.45 18.725,6.17125 18.985,5.98625 Z"
   inkscape:connector-curvature="0" /><path
   id="path212"
   style="fill:#000000;fill-opacity:0.2;fill-rule:evenodd;stroke-width:1.25"
   d="m 19.12125,6.02 -0.63,0.9475 -0.42,-0.14125 C 18.4225,6.45 18.725,6.17125 18.985,5.98625 Z"
   inkscape:connector-curvature="0" /><path
   id="path214"
   style="fill:#000000;fill-opacity:0.1451;fill-rule:evenodd;stroke-width:1.25"
   d="m 19.71625,3.955 0.1075,-0.06875 0.1375,0.03375 0.21,0.455 L 19.995,4.61875 19.82375,4.165 l -0.21,0.03375 z"
   inkscape:connector-curvature="0" /><path
   id="path216"
   style="fill:#000000;fill-opacity:0.2;fill-rule:evenodd;stroke-width:1.25"
   d="m 19.71625,3.955 0.1075,-0.06875 0.1375,0.03375 0.21,0.455 L 19.995,4.61875 19.82375,4.165 l -0.21,0.03375 z"
   inkscape:connector-curvature="0" /><path
   id="path218"
   style="fill:#000000;fill-opacity:0.1451;fill-rule:evenodd;stroke-width:1.25"
   d="M 19.22875,5.84375 19.12125,6.02 18.985,5.98625 Z"
   inkscape:connector-curvature="0" /><path
   id="path220"
   style="fill:#000000;fill-opacity:0.2;fill-rule:evenodd;stroke-width:1.25"
   d="M 19.22875,5.84375 19.12125,6.02 18.985,5.98625 Z"
   inkscape:connector-curvature="0" /><path
   id="path222"
   style="fill:#000000;fill-opacity:0.2;fill-rule:evenodd;stroke-width:1.25"
   d="M 19.22875,5.84375 19.12125,6.02 18.985,5.98625 Z"
   inkscape:connector-curvature="0" /><path
   id="path224"
   style="fill:#000000;fill-opacity:0.2;fill-rule:evenodd;stroke-width:1.25"
   d="m 14.4675,8.8575 c 0.06875,-0.30375 0.2,-0.645 0.38625,-1.01625 L 14.8875,7.8075 15.02875,7.7 Z"
   inkscape:connector-curvature="0" /><path
   id="path226"
   style="fill:#000000;fill-opacity:0.1451;fill-rule:evenodd;stroke-width:1.25"
   d="m 19.995,4.61875 0.42,1.1225 -0.03375,-0.03375 -0.63,-0.77125 z"
   inkscape:connector-curvature="0" /><path
   id="path228"
   style="fill:#000000;fill-opacity:0.2;fill-rule:evenodd;stroke-width:1.25"
   d="m 19.995,4.61875 0.42,1.1225 -0.03375,-0.03375 -0.63,-0.77125 z"
   inkscape:connector-curvature="0" /><path
   id="path230"
   style="fill:#000000;fill-opacity:0.1451;fill-rule:evenodd;stroke-width:1.25"
   d="m 19.75125,4.93625 0.63,0.77125 C 19.985,5.615 19.6,5.65875 19.22875,5.84375 Z"
   inkscape:connector-curvature="0" /><path
   id="path232"
   style="fill:#000000;fill-opacity:0.2;fill-rule:evenodd;stroke-width:1.25"
   d="m 19.75125,4.93625 0.63,0.77125 C 19.985,5.615 19.6,5.65875 19.22875,5.84375 Z"
   inkscape:connector-curvature="0" /><path
   id="path234"
   style="fill:#000000;fill-opacity:0.2;fill-rule:evenodd;stroke-width:1.25"
   d="m 19.75125,4.93625 0.63,0.77125 C 19.985,5.615 19.6,5.65875 19.22875,5.84375 Z"
   inkscape:connector-curvature="0" /><path
   id="path236"
   style="fill:#000000;fill-opacity:0.2;fill-rule:evenodd;stroke-width:1.25"
   d="M 14.4675,8.8575 15.02875,7.7 16.3575,6.72375 l 0.77125,-0.04 0.9475,0.1425 L 17.06,8.0175 c -0.7275,0.77125 -1.19125,1.38625 -1.40125,1.855 -0.35125,0.79125 -0.25875,1.48 0.27875,2.06125 L 14.995,11.865 c -0.44375,-0.06875 -0.7225,-0.18625 -0.84,-0.3475 -0.14125,-0.165 -0.15125,-0.52625 -0.03375,-1.08875 0.13625,-0.55625 0.22,-0.9175 0.24375,-1.08375 z"
   inkscape:connector-curvature="0" /><path
   id="path238"
   style="fill:#000000;fill-opacity:0.2;fill-rule:evenodd;stroke-width:1.25"
   d="M 14.4675,8.8575 15.02875,7.7 16.3575,6.72375 l 0.77125,-0.04 0.9475,0.1425 L 17.06,8.0175 c -0.7275,0.77125 -1.19125,1.38625 -1.40125,1.855 -0.35125,0.79125 -0.25875,1.48 0.27875,2.06125 L 14.995,11.865 c -0.44375,-0.06875 -0.7225,-0.18625 -0.84,-0.3475 -0.14125,-0.165 -0.15125,-0.52625 -0.03375,-1.08875 0.13625,-0.55625 0.22,-0.9175 0.24375,-1.08375 z"
   inkscape:connector-curvature="0" /><path
   id="path240"
   style="fill:#000000;fill-opacity:0.1451;fill-rule:evenodd;stroke-width:1.25"
   d="m 19.58,4.34 0.03375,-0.14125 0.21,-0.03375 0.17125,0.45375 -0.24375,0.3175 -0.42,-0.42 z"
   inkscape:connector-curvature="0" /><path
   id="path242"
   style="fill:#000000;fill-opacity:0.2;fill-rule:evenodd;stroke-width:1.25"
   d="m 19.58,4.34 0.03375,-0.14125 0.21,-0.03375 0.17125,0.45375 -0.24375,0.3175 -0.42,-0.42 z"
   inkscape:connector-curvature="0" /><path
   id="path244"
   style="fill:#000000;fill-opacity:0.2;fill-rule:evenodd;stroke-width:1.25"
   d="m 19.58,4.34 0.03375,-0.14125 0.21,-0.03375 0.17125,0.45375 -0.24375,0.3175 -0.42,-0.42 z"
   inkscape:connector-curvature="0" /><path
   id="path246"
   style="fill:#000000;fill-opacity:0.1451;fill-rule:evenodd;stroke-width:1.25"
   d="m 18.07125,6.82625 -0.9425,-0.1425 -0.77125,0.035 1.7825,-1.295 0.845,0.5625 c -0.26,0.185 -0.5625,0.46875 -0.91375,0.84 z"
   inkscape:connector-curvature="0" /><path
   id="path248"
   style="fill:#000000;fill-opacity:0.2;fill-rule:evenodd;stroke-width:1.25"
   d="m 18.07125,6.82625 -0.9425,-0.1425 -0.77125,0.035 1.7825,-1.295 0.845,0.5625 c -0.26,0.185 -0.5625,0.46875 -0.91375,0.84 z"
   inkscape:connector-curvature="0" /><path
   id="path250"
   style="fill:#000000;fill-opacity:0.2;fill-rule:evenodd;stroke-width:1.25"
   d="m 18.07125,6.82625 -0.9425,-0.1425 -0.77125,0.035 1.7825,-1.295 0.845,0.5625 c -0.26,0.185 -0.5625,0.46875 -0.91375,0.84 z"
   inkscape:connector-curvature="0" /><path
   id="path252"
   style="fill:#000000;fill-opacity:0.1451;fill-rule:evenodd;stroke-width:1.25"
   d="m 19.33125,4.51625 0.42,0.42 -0.5225,0.9075 -0.24375,0.1425 -0.84,-0.5625 z"
   inkscape:connector-curvature="0" /><path
   id="path254"
   style="fill:#000000;fill-opacity:0.2;fill-rule:evenodd;stroke-width:1.25"
   d="m 19.33125,4.51625 0.42,0.42 -0.5225,0.9075 -0.24375,0.1425 -0.84,-0.5625 z"
   inkscape:connector-curvature="0" /><path
   id="path256"
   style="fill:#000000;fill-opacity:0.2;fill-rule:evenodd;stroke-width:1.25"
   d="m 19.33125,4.51625 0.42,0.42 -0.5225,0.9075 -0.24375,0.1425 -0.84,-0.5625 z"
   inkscape:connector-curvature="0" /><path
   id="path258"
   style="fill:#000000;fill-opacity:0.2;fill-rule:evenodd;stroke-width:1.25"
   d="m 19.33125,4.51625 0.42,0.42 -0.5225,0.9075 -0.24375,0.1425 -0.84,-0.5625 z"
   inkscape:connector-curvature="0" /><path
   id="path260"
   style="fill:#000000;fill-opacity:0.2;fill-rule:evenodd;stroke-width:1.25"
   d="m 10.96625,14.0375 0.3525,-0.14125 -0.48875,0.385 z"
   inkscape:connector-curvature="0" /><path
   id="path262"
   style="fill:#000000;fill-opacity:0.1451;fill-rule:evenodd;stroke-width:1.25"
   d="m 6.94375,23.8375 v 0.69875 l -0.21,-0.245 z"
   inkscape:connector-curvature="0" /><path
   id="path264"
   style="fill:#000000;fill-opacity:0.2;fill-rule:evenodd;stroke-width:1.25"
   d="m 6.94375,23.8375 v 0.69875 l -0.21,-0.245 z"
   inkscape:connector-curvature="0" /><path
   id="path266"
   style="fill:#000000;fill-opacity:0.1451;fill-rule:evenodd;stroke-width:1.25"
   d="M 8.345,18.69125 7.6075,20.7225 c 0.14125,-0.70375 0.37625,-1.41125 0.69875,-2.13875 z"
   inkscape:connector-curvature="0" /><path
   id="path268"
   style="fill:#000000;fill-opacity:0.2;fill-rule:evenodd;stroke-width:1.25"
   d="M 8.345,18.69125 7.6075,20.7225 c 0.14125,-0.70375 0.37625,-1.41125 0.69875,-2.13875 z"
   inkscape:connector-curvature="0" /><path
   id="path270"
   style="fill:#000000;fill-opacity:0.1451;fill-rule:evenodd;stroke-width:1.25"
   d="M 6.94375,24.53625 C 6.895,25.165 6.90875,25.7125 6.9775,26.18125 7.28,26.1125 7.515,25.97125 7.67625,25.76125 7.8175,26.5325 8.2275,27.7925 8.90125,29.54 8.53,29.4475 8.145,29.20375 7.74875,28.80875 7.305,28.29 6.9775,27.92875 6.7675,27.71875 6.27875,27.23125 6.10375,26.5325 6.245,25.62 6.28875,25.43375 6.455,24.99 6.73375,24.29125 Z"
   inkscape:connector-curvature="0" /><path
   id="path272"
   style="fill:#000000;fill-opacity:0.2;fill-rule:evenodd;stroke-width:1.25"
   d="M 6.94375,24.53625 C 6.895,25.165 6.90875,25.7125 6.9775,26.18125 7.28,26.1125 7.515,25.97125 7.67625,25.76125 7.8175,26.5325 8.2275,27.7925 8.90125,29.54 8.53,29.4475 8.145,29.20375 7.74875,28.80875 7.305,28.29 6.9775,27.92875 6.7675,27.71875 6.27875,27.23125 6.10375,26.5325 6.245,25.62 6.28875,25.43375 6.455,24.99 6.73375,24.29125 Z"
   inkscape:connector-curvature="0" /><path
   id="path274"
   style="fill:#000000;fill-opacity:0.2;fill-rule:evenodd;stroke-width:1.25"
   d="M 6.94375,24.53625 C 6.895,25.165 6.90875,25.7125 6.9775,26.18125 7.28,26.1125 7.515,25.97125 7.67625,25.76125 7.8175,26.5325 8.2275,27.7925 8.90125,29.54 8.53,29.4475 8.145,29.20375 7.74875,28.80875 7.305,28.29 6.9775,27.92875 6.7675,27.71875 6.27875,27.23125 6.10375,26.5325 6.245,25.62 6.28875,25.43375 6.455,24.99 6.73375,24.29125 Z"
   inkscape:connector-curvature="0" /><path
   id="path276"
   style="fill:#000000;fill-opacity:0.2;fill-rule:evenodd;stroke-width:1.25"
   d="m 10.83,14.28125 0.48875,-0.385 0.5225,-0.21 c -0.1375,0.42 -0.51375,1.04 -1.11875,1.855 C 10.21,16.215 9.94125,16.87 9.9175,17.5 c 0,0.585 0.12625,1.04 0.385,1.36625 0.18625,0.18625 0.5225,0.5375 1.01625,1.05 -0.5625,-0.23375 -1.1575,-0.0725 -1.7875,0.48875 C 9.13625,20.00875 8.775,19.50625 8.4475,18.90125 l -0.1025,-0.21 0.24375,-0.7375 c 0.3025,-0.58125 1.05,-1.80625 2.24125,-3.6725 z"
   inkscape:connector-curvature="0" /><path
   id="path278"
   style="fill:#000000;fill-opacity:0.2;fill-rule:evenodd;stroke-width:1.25"
   d="m 10.83,14.28125 0.48875,-0.385 0.5225,-0.21 c -0.1375,0.42 -0.51375,1.04 -1.11875,1.855 C 10.21,16.215 9.94125,16.87 9.9175,17.5 c 0,0.585 0.12625,1.04 0.385,1.36625 0.18625,0.18625 0.5225,0.5375 1.01625,1.05 -0.5625,-0.23375 -1.1575,-0.0725 -1.7875,0.48875 C 9.13625,20.00875 8.775,19.50625 8.4475,18.90125 l -0.1025,-0.21 0.24375,-0.7375 c 0.3025,-0.58125 1.05,-1.80625 2.24125,-3.6725 z"
   inkscape:connector-curvature="0" /><path
   id="path280"
   style="fill:#000000;fill-opacity:0.1451;fill-rule:evenodd;stroke-width:1.25"
   d="m 7.6075,20.7225 0.7375,-2.03125 0.1025,0.21 c 0.3275,0.605 0.68875,1.1075 1.08375,1.50375 -0.44375,0.35125 -0.84,0.815 -1.19125,1.40125 -0.3275,0.5375 -0.5375,1.015 -0.63,1.435 C 7.54875,23.92 7.525,24.6525 7.64125,25.44375 l -0.6975,-0.9075 v -0.7325 c 0.185,-0.46875 0.385,-1.3925 0.595,-2.76875 z"
   inkscape:connector-curvature="0" /><path
   id="path282"
   style="fill:#000000;fill-opacity:0.2;fill-rule:evenodd;stroke-width:1.25"
   d="m 7.6075,20.7225 0.7375,-2.03125 0.1025,0.21 c 0.3275,0.605 0.68875,1.1075 1.08375,1.50375 -0.44375,0.35125 -0.84,0.815 -1.19125,1.40125 -0.3275,0.5375 -0.5375,1.015 -0.63,1.435 C 7.54875,23.92 7.525,24.6525 7.64125,25.44375 l -0.6975,-0.9075 v -0.7325 c 0.185,-0.46875 0.385,-1.3925 0.595,-2.76875 z"
   inkscape:connector-curvature="0" /><path
   id="path284"
   style="fill:#000000;fill-opacity:0.2;fill-rule:evenodd;stroke-width:1.25"
   d="m 7.6075,20.7225 0.7375,-2.03125 0.1025,0.21 c 0.3275,0.605 0.68875,1.1075 1.08375,1.50375 -0.44375,0.35125 -0.84,0.815 -1.19125,1.40125 -0.3275,0.5375 -0.5375,1.015 -0.63,1.435 C 7.54875,23.92 7.525,24.6525 7.64125,25.44375 l -0.6975,-0.9075 v -0.7325 c 0.185,-0.46875 0.385,-1.3925 0.595,-2.76875 z"
   inkscape:connector-curvature="0" /><path
   id="path286"
   style="fill:#000000;fill-opacity:0.1451;fill-rule:evenodd;stroke-width:1.25"
   d="m 6.94375,24.53625 0.6975,0.9075 0.035,0.3175 C 7.515,25.97125 7.28,26.1125 6.9775,26.18125 6.90875,25.7125 6.895,25.165 6.94375,24.53625 Z"
   inkscape:connector-curvature="0" /><path
   id="path288"
   style="fill:#000000;fill-opacity:0.2;fill-rule:evenodd;stroke-width:1.25"
   d="m 6.94375,24.53625 0.6975,0.9075 0.035,0.3175 C 7.515,25.97125 7.28,26.1125 6.9775,26.18125 6.90875,25.7125 6.895,25.165 6.94375,24.53625 Z"
   inkscape:connector-curvature="0" /><path
   id="path290"
   style="fill:#000000;fill-opacity:0.2;fill-rule:evenodd;stroke-width:1.25"
   d="m 6.94375,24.53625 0.6975,0.9075 0.035,0.3175 C 7.515,25.97125 7.28,26.1125 6.9775,26.18125 6.90875,25.7125 6.895,25.165 6.94375,24.53625 Z"
   inkscape:connector-curvature="0" /><path
   id="path292"
   style="fill:#000000;fill-opacity:0.2;fill-rule:evenodd;stroke-width:1.25"
   d="m 6.94375,24.53625 0.6975,0.9075 0.035,0.3175 C 7.515,25.97125 7.28,26.1125 6.9775,26.18125 6.90875,25.7125 6.895,25.165 6.94375,24.53625 Z"
   inkscape:connector-curvature="0" /><path
   id="path294"
   style="fill:#ffffff;fill-opacity:0.498;fill-rule:evenodd;stroke-width:1.25"
   d="m 27.8025,6.05375 c 0.7475,0.5175 1.40125,0.83 1.95875,0.9475 0.65375,0.1375 1.445,0.21 2.3825,0.21 0.5325,0.025 1.3325,0.025 2.3975,0 C 34.35,7.21625 33.38875,7.3575 31.65,7.63125 30.39,7.8175 29.43375,7.7925 28.78375,7.55875 28.4325,7.44625 28.05625,7.1525 27.66125,6.68375 l -0.9425,-1.1175 C 25.645,4.54 24.62875,3.955 23.6725,3.8175 c 1.235,0 2.00625,0.27875 2.30875,0.84 L 26.3325,4.55 c 0.235,0.46875 0.72375,0.9675 1.47,1.50375 z"
   inkscape:connector-curvature="0" /><path
   id="path298"
   style="fill:#c4b050;fill-rule:evenodd;stroke-width:1.25"
   d="m 23.745,8.96 -0.21,0.56125 C 22.905,9.00875 22.26125,8.38875 21.60625,7.665 20.9525,6.91875 20.63,6.43 20.63,6.19625 c 0,-0.21 0.12625,-0.3375 0.38125,-0.38625 0.23375,-0.06875 0.385,-0.03375 0.45875,0.1075 0.42,0.65375 1.29375,1.27875 2.62125,1.89 0.025,0.21 -0.0925,0.595 -0.34625,1.1525 z"
   inkscape:connector-curvature="0" /><path
   id="path300"
   style="fill:#c4b050;fill-rule:evenodd;stroke-width:1.25"
   d="m 25.3175,10.63875 c -0.235,-0.23375 -0.235,-0.595 0,-1.08375 0.21,-0.5375 0.47875,-0.6975 0.805,-0.4875 0.1375,0.0925 0.445,0.25375 0.90875,0.4875 0.35125,0.16625 0.605,0.3125 0.77125,0.45375 0.3275,0.30875 1.235,0.62125 2.73,0.9475 1.3525,0.27875 2.01625,0.445 1.99625,0.48875 h 0.06875 l -0.06875,1.3675 c -0.11625,0.21 -0.4925,0.25875 -1.1225,0.14125 -1.025,-0.14125 -2.275,-0.5175 -3.745,-1.12375 -1.26,-0.5125 -2.04125,-0.9075 -2.34375,-1.19125 z"
   inkscape:connector-curvature="0" /><path
   id="path302"
   style="fill:#93843d;fill-rule:evenodd;stroke-width:1.25"
   d="m 41.52375,11.26875 c -0.025,0.18625 -0.035,0.455 -0.035,0.80625 -0.0725,0.3025 -0.2675,0.53625 -0.595,0.7025 C 38.98,12.93875 36.88,12.9875 34.59,12.915 34.42875,12.705 34.38,12.45125 34.4525,12.1425 34.57,11.655 34.62875,11.40125 34.62875,11.37625 L 38.4425,11.3375 c 0.84,0 1.865,-0.1175 3.08125,-0.34625 z"
   inkscape:connector-curvature="0" /><path
   id="path304"
   style="fill:#c4b050;fill-rule:evenodd;stroke-width:1.25"
   d="m 46.665,8.68125 c 0.16625,0.0925 0.19,0.3275 0.07375,0.69875 -0.1425,0.35125 -0.36125,0.7125 -0.67,1.08375 -0.4875,0.63 -1.15125,1.1475 -1.99125,1.5425 l -0.1425,-0.21 -0.2775,-0.84 c 0.2775,-0.395 0.41,-0.63 0.385,-0.6975 C 44.185,10.185 44.37,10.0675 44.6,9.90625 c 1.1225,-0.9325 1.81125,-1.3425 2.065,-1.225 z"
   inkscape:connector-curvature="0" /><path
   id="path306"
   style="fill:#93843d;fill-rule:evenodd;stroke-width:1.25"
   d="m 46.665,8.68125 c 0.16625,0.0925 0.19,0.3275 0.07375,0.69875 -0.1425,0.35125 -0.36125,0.7125 -0.67,1.08375 -0.395,0.4925 -0.85875,0.8975 -1.39625,1.225 L 44.6,11.445 44.74125,11.16625 c 0.19,-0.67875 0.645,-1.47 1.3675,-2.3825 0.22875,-0.13625 0.42,-0.17125 0.55625,-0.1025 z"
   inkscape:connector-curvature="0" /><path
   id="path308"
   style="fill:#c4b050;fill-rule:evenodd;stroke-width:1.25"
   d="m 34.6625,12.285 -0.24375,0.03375 c 0.14125,-0.42 0.21,-0.7325 0.21,-0.9425 L 38.4425,11.3425 c 0.84,0 1.865,-0.1175 3.08125,-0.35125 v 0.14125 c -0.98125,0.5375 -2.1,0.88375 -3.36,1.05 C 37.51,12.25 36.3425,12.285 34.6625,12.285 Z"
   inkscape:connector-curvature="0" /><path
   id="path310"
   style="fill:#93843d;fill-rule:evenodd;stroke-width:1.25"
   d="m 25.7375,10.63875 c 1.655,0.7225 2.73875,1.1825 3.25625,1.3675 1.47,0.46375 2.65625,0.56125 3.565,0.27875 l -0.03,0.5225 c -0.11625,0.21 -0.4925,0.25875 -1.1225,0.14125 -1.025,-0.14125 -2.275,-0.5125 -3.745,-1.11875 -1.26,-0.5125 -2.04125,-0.9075 -2.34375,-1.19125 -0.1175,-0.16125 -0.16125,-0.36125 -0.14125,-0.595 0.11625,0.25875 0.3075,0.45875 0.56125,0.595 z"
   inkscape:connector-curvature="0" /><path
   id="path312"
   style="fill:#c4b050;fill-rule:evenodd;stroke-width:1.25"
   d="m 20.76625,3.37875 -0.0675,0.19 c 0,0.19 0.0087,0.35125 0.03375,0.49375 -0.025,0.04375 -0.16125,0.05875 -0.42,0.03375 -0.65375,-0.025 -1.48875,0.64 -2.52,1.9975 -0.76625,1.025 -1.91375,2.83125 -3.4275,5.42375 -0.395,0.675 -0.98125,1.3625 -1.7525,2.06125 -1.07,1.03 -1.63125,1.5625 -1.68,1.61125 -0.88375,0.98125 -1.665,2.8375 -2.34375,5.56625 C 7.5875,24.58 6.1725,26.90375 4.355,27.71875 c -0.9125,0.42 -1.62,0.92375 -2.13875,1.505 -0.43875,0.5175 -0.6825,1.04 -0.73125,1.57625 -0.05,0.655 0.6875,1.495 2.20625,2.52 1.84125,1.235 4.53625,2.13375 8.08125,2.695 3.38375,0.5375 6.3575,0.59625 8.92625,0.17625 l 1.29375,-0.21 c 2.71,-0.445 4.70125,-0.9575 5.98625,-1.53875 2.09875,-0.9375 4.13125,-2.55875 6.08875,-4.8675 2.055,-2.4025 3.56875,-4.35125 4.55125,-5.845 0.605,-0.9325 1.41,-2.36875 2.41625,-4.30625 L 42.78375,16.24 c 0.795,-1.51875 1.70375,-2.98875 2.72875,-4.41 0.90875,-1.16625 1.39125,-1.78625 1.43625,-1.855 0.7225,-1.025 1.25875,-1.41125 1.61125,-1.1575 0.21,0.1425 0.24375,0.49375 0.1025,1.05 -0.1175,0.46875 -0.27875,0.84 -0.48875,1.12375 0,0.02375 -0.5125,0.78125 -1.5425,2.275 -1.1875,1.79625 -2.15875,3.4175 -2.90625,4.86375 l -0.5225,1.08375 c -1.215,2.33375 -2.21625,4.13 -3.0075,5.395 -1.40125,2.2125 -3.13,4.53625 -5.185,6.9625 -2.1925,2.56375 -4.375,4.36125 -6.54375,5.39125 -1.3275,0.605 -3.36875,1.1325 -6.1225,1.5725 L 21.045,38.745 C 19.6925,38.97875 17.96875,39.0375 15.86875,38.92 9.4975,38.47625 5.015,37.3925 2.42625,35.66875 0.69875,34.52125 -0.1075,33.18375 0.01,31.64 0.0825,30.36125 0.69875,29.145 1.865,28.0025 2.68125,27.1875 3.57875,26.5575 4.56,26.1125 5.0975,25.85375 5.58625,25.19 6.03,24.11625 6.28875,23.46125 6.61625,22.3525 7.01125,20.79 7.4075,19.20375 7.74375,18.0275 8.0275,17.255 c 0.46375,-1.235 1.025,-2.21625 1.68,-2.93875 0.11625,-0.1425 0.63,-0.615 1.5375,-1.43625 0.7225,-0.65375 1.29375,-1.28375 1.71375,-1.88875 C 15.1075,7.8175 16.3325,6.045 16.63625,5.67375 17.92,4.08625 19.12125,3.325 20.23875,3.3975 l 0.1025,0.1375 c 0.23,0.02375 0.37125,-0.03 0.425,-0.15625 z"
   inkscape:connector-curvature="0" /><path
   id="path314"
   style="fill:#93843d;fill-rule:evenodd;stroke-width:1.25"
   d="m 20.69875,3.56875 c 0,0.19 0.0087,0.35125 0.03375,0.49375 -0.025,0.04375 -0.16125,0.05875 -0.42,0.03375 -0.605,-0.025 -1.3625,0.5375 -2.275,1.68 -0.7225,0.9325 -1.73875,2.485 -3.0425,4.6525 l 0.45375,-1.435 C 15.9625,7.92 16.3625,7.11875 16.64,6.58125 17.105,5.6 17.5825,4.81875 18.07625,4.2325 c 0.7475,-0.58 1.47,-0.85875 2.1675,-0.84 l 0.1025,0.1425 c 0.16625,0 0.29375,-0.04875 0.38625,-0.1425 z"
   inkscape:connector-curvature="0" /><path
   id="path316"
   style="fill:#a09047;fill-rule:evenodd;stroke-width:1.25"
   d="m 43.0275,16.45 c 0.4875,-1.02625 0.805,-1.7825 0.9425,-2.27625 0.63,-1.025 1.30875,-2.01625 2.03125,-2.9725 0.605,-0.7725 0.9225,-1.1775 0.9475,-1.22625 0.7225,-1.025 1.25875,-1.41125 1.60625,-1.1525 0.21,0.1375 0.24375,0.48875 0.1075,1.05 -0.1175,0.46375 -0.28375,0.84 -0.49375,1.11875 0,0.02375 -0.5125,0.78125 -1.5375,2.275 -1.1875,1.79625 -2.15875,3.4175 -2.90625,4.86375 l -0.5225,1.08375 c -1.215,2.33375 -2.21625,4.13 -3.0075,5.395 -1.40125,2.2125 -3.13,4.53625 -5.185,6.9625 -2.1925,2.56375 -4.375,4.36125 -6.54375,5.39125 -1.3275,0.605 -3.36875,1.1325 -6.1225,1.5725 L 21.045,38.745 C 19.6925,38.97875 17.96875,39.0375 15.86875,38.92 9.4975,38.47625 5.015,37.3925 2.42625,35.66875 0.69875,34.52125 -0.1075,33.18375 0.01,31.64 0.03375,31.035 0.235,30.38 0.605,29.6825 l 0.07375,0.21 c -0.04875,0.79125 0.0925,1.40125 0.415,1.82125 1.09875,1.47 2.09,2.47 2.97875,3.0075 1.655,0.98125 4.22375,1.67 7.7,2.065 4.34125,0.48875 8.17875,0.455 11.51375,-0.1025 3.89625,-0.65375 6.82625,-1.9625 8.78375,-3.92 2.1,-2.1 3.81375,-4.0725 5.14625,-5.91875 1.32875,-1.81625 2.6475,-4.0475 3.95625,-6.68375 C 42.08,18.34 42.7,17.10375 43.0275,16.45 Z"
   inkscape:connector-curvature="0" /><path
   id="path318"
   style="fill:#7b6e36;fill-rule:evenodd;stroke-width:1.25"
   d="M 15.86875,38.92 C 9.4975,38.47625 5.02,37.3925 2.42625,35.66375 1.3575,34.94125 0.63,34.135 0.25875,33.25125 c 1.05,0.69875 2.085,1.31875 3.115,1.85625 0.27875,0.185 0.64,0.385 1.08375,0.595 1.00125,0.5125 1.89,0.91875 2.66125,1.22125 0.18625,0.0725 0.36125,0.0975 0.5225,0.0725 C 11.05,38.3 14.61875,38.8475 18.355,38.6425 c 4.29125,-0.3025 7.65125,-0.865 10.0775,-1.68 -0.88375,0.395 -1.88,0.7325 -2.97375,1.01125 C 24.78,38.115 23.745,38.3 22.34375,38.535 L 21.05,38.745 c -1.3575,0.23375 -3.08125,0.2925 -5.18125,0.175 z"
   inkscape:connector-curvature="0" /><path
   id="path320"
   style="fill:#8a7c3e;fill-rule:evenodd;stroke-width:1.25"
   d="m 46.94875,12.7775 c -0.93375,1.39625 -1.76375,2.74 -2.48625,4.02375 0.06875,-1.025 0.04375,-2.13375 -0.0675,-3.325 0.56125,-0.865 1.1425,-1.69 1.7475,-2.485 0.5125,-0.63 0.78125,-0.9675 0.80625,-1.01625 0.7225,-1.025 1.25875,-1.41125 1.61125,-1.1525 0.21,0.1375 0.24375,0.48875 0.1025,1.05 -0.1175,0.46375 -0.27875,0.84 -0.48875,1.11875 -0.0925,0.0925 -0.5025,0.6875 -1.225,1.78625 z"
   inkscape:connector-curvature="0" />
<metadata
   id="metadata158"><rdf:RDF><cc:Work><dc:format>image/svg+xml</dc:format><dc:type
         rdf:resource="http://purl.org/dc/dcmitype/StillImage" /><cc:license
         rdf:resource="http://creativecommons.org/licenses/publicdomain/" /><dc:publisher><cc:Agent
           rdf:about="http://openclipart.org/"><dc:title>Openclipart</dc:title></cc:Agent></dc:publisher></cc:Work><cc:License
       rdf:about="http://creativecommons.org/licenses/publicdomain/"><cc:permits
         rdf:resource="http://creativecommons.org/ns#Reproduction" /><cc:permits
         rdf:resource="http://creativecommons.org/ns#Distribution" /><cc:permits
         rdf:resource="http://creativecommons.org/ns#DerivativeWorks" /></cc:License></rdf:RDF></metadata></svg>
